<svg id="Layer_1" data-name="Layer 1" xmlns="http://www.w3.org/2000/svg" xmlns:xlink="http://www.w3.org/1999/xlink" viewBox="0 0 659.3 487.4"><defs><style>.cls-1{fill:#af9457;}.cls-2{clip-path:url(#clip-path);}</style><clipPath id="clip-path"><path class="cls-1" d="M330.17,157.93h0c-.31,0-.61.15-1.38,1.08a46.25,46.25,0,0,1-6,6.15l-.15.16a3,3,0,0,0-.92,2.15,3,3,0,0,0,.92,2.16,40.65,40.65,0,0,1,5.54,6l.31.61v12.32a.84.84,0,0,1-.62.92.92.92,0,0,1-1.07-.15l-6.62-4.93-.46-.77c-.16-2.15-.16-3.54-.16-6.15a2.84,2.84,0,0,0-.61-2,2.29,2.29,0,0,0-2-.62h-.3a47.92,47.92,0,0,1-8-.15,4,4,0,0,0-1.54.15,2.12,2.12,0,0,0-.15,1.54,69.57,69.57,0,0,1,.15,8v.31a2.84,2.84,0,0,0,.62,2,2.29,2.29,0,0,0,2,.62,63.85,63.85,0,0,1,7.7.15l1.07-.15a1.35,1.35,0,0,1,1.08.15l8.47,6.31a.94.94,0,0,1,.46.92v13.4a.84.84,0,0,1-.62.92,1,1,0,0,1-1.07-.15l-7.08-5.39-.47-.77c-.15-2.16-.15-3.7-.15-6.47a2.35,2.35,0,0,0-.77-2,2.93,2.93,0,0,0-2-.77H316a49.64,49.64,0,0,1-8.31-.15,3.53,3.53,0,0,0-1.54.15A2.08,2.08,0,0,0,306,195a51.28,51.28,0,0,1,.15,8.31v.31a2.35,2.35,0,0,0,.77,2,3.26,3.26,0,0,0,2,.77,46.57,46.57,0,0,1,8,.31l1.24-.15a.93.93,0,0,1,.92.15l9.08,6.77a.93.93,0,0,1,.46.93v13.23a.85.85,0,0,1-.61.93,1,1,0,0,1-1.08-.16l-7.54-5.69-.77-.46c-.16-2.31-.16-3.85-.16-6.62a3,3,0,0,0-.77-2.16,3,3,0,0,0-2.15-.77h-.31a53.09,53.09,0,0,1-8.62-.15c-1.07-.15-1.54.15-1.69.31a5.31,5.31,0,0,0,0,1.69,53.09,53.09,0,0,1,.15,8.62v.31a2.67,2.67,0,0,0,2.93,2.92,37.93,37.93,0,0,1,8.31.31l1.23-.15a1.35,1.35,0,0,1,1.08.15s8.93,6.62,9.23,6.93a6.7,6.7,0,0,1,4.93,0c.15-.16,9.23-6.93,9.23-6.93.31-.15.62-.31.93-.15l1.23.15a74.47,74.47,0,0,1,8.31-.31,3,3,0,0,0,2.15-.77,3,3,0,0,0,.77-2.15v-.31a54.28,54.28,0,0,1,.16-8.62c.15-1.08,0-1.54-.31-1.69-.15-.16-.62-.31-1.69-.31a51.29,51.29,0,0,1-8.47.15h-.31a2.67,2.67,0,0,0-2.92,2.93,46.43,46.43,0,0,1-.15,6.62l-.47.77-7.54,5.69a.94.94,0,0,1-1.08.15A1.26,1.26,0,0,1,332,228V214.72a1.33,1.33,0,0,1,.46-.92l9.08-6.77a1.27,1.27,0,0,1,1.08-.16l1.23.16a69,69,0,0,1,8-.31,2.35,2.35,0,0,0,2-.77,2.88,2.88,0,0,0,.77-2v-.31a50.77,50.77,0,0,1,.16-8.31,1.22,1.22,0,0,0-1.69-1.69,72.36,72.36,0,0,1-8.16.15h-.31a2.38,2.38,0,0,0-2,.77,2.93,2.93,0,0,0-.77,2,45.46,45.46,0,0,1-.15,6.47l-.47.77-7.08,5.38a.94.94,0,0,1-1.07.16,1.28,1.28,0,0,1-.62-.93V195a1.31,1.31,0,0,1,.46-.92l8.47-6.31a1.24,1.24,0,0,1,1.07-.16l1.08.16a43.08,43.08,0,0,1,7.7-.16,2.84,2.84,0,0,0,2-.61,2.26,2.26,0,0,0,.61-2v-.31a46.78,46.78,0,0,1,.16-8,3.73,3.73,0,0,0-.16-1.54,2,2,0,0,0-1.53-.16,69.75,69.75,0,0,1-8,.16H344a2.84,2.84,0,0,0-2,.61,2.26,2.26,0,0,0-.61,2,39.23,39.23,0,0,1-.16,6.16l-.46.77-6.62,4.93a1,1,0,0,1-1.07.15,1.27,1.27,0,0,1-.62-.92V176.55l.31-.61a66.27,66.27,0,0,1,5.54-6,3,3,0,0,0,.92-2.15,3.08,3.08,0,0,0-.92-2.16l-.15-.15a55.52,55.52,0,0,1-6-6.16C330.79,158.08,330.48,157.93,330.17,157.93ZM389,179.2h0a8.25,8.25,0,0,1-2.87,2.23c-1.75.95-3.5,2.07-3.5,3.82,0,2.23,3.5,4.78,5.41,6.06l1.44,1.11c.16.16.48.64.64,15.78,0,.16,0,.16-.16.16h-.32l-1.6-1.76-1.75-1.91c0-.16-.16-1.12-.16-1.12-.32-2.7-.79-7-4.3-9.87-2.87-2.39-9.4-3-12.91-2.71-1.27.16-1.91.32-1.91.48-.79,1.11-1.11,6.21,2.87,10.19,3.19,3.19,8.44,3.51,11.95,3.67l2.07.16a56,56,0,0,1,6.22,5.73l.16.16v.16s.15,13.86.15,14.18c.32,0,1.76.16,2.24.16,0-.48.15-14.34.15-14.34v-.16l.16-.16a54.41,54.41,0,0,1,6.22-5.57c.16,0,2.07-.16,2.07-.16,3.51-.16,8.76-.48,11.95-3.67a11.39,11.39,0,0,0,3.35-7.81,4.12,4.12,0,0,0-.48-2.39,4.26,4.26,0,0,0-1.91-.47c-3.51-.32-10,.16-12.91,2.71-3.51,2.86-4,7.17-4.3,9.87l-.16,1.12a23.7,23.7,0,0,1-1.75,2.07l-1.6,1.75a.22.22,0,0,1-.32,0,.16.16,0,0,1-.16-.16c.32-15.29.48-15.61.64-15.77l1.44-1.12c1.91-1.27,5.41-3.82,5.41-6.05,0-1.75-1.75-2.87-3.5-3.82a10.22,10.22,0,0,1-2.87-2.08c-.48-1.43-1.43-2.23-2.39-2.23A2.63,2.63,0,0,0,389,179.2Zm-120.72-2.35h0a8.46,8.46,0,0,1-3,2.33c-1.83,1-3.66,2.17-3.66,4,0,2.33,3.66,5,5.66,6.32l1.5,1.17c.16.16.5.66.66,16.48,0,.16,0,.16-.16.16H269l-1.66-1.83-1.83-2c0-.16-.17-1.16-.17-1.16-.33-2.83-.83-7.32-4.49-10.32-3-2.5-9.82-3.16-13.48-2.83-1.34.17-2,.33-2,.5a4.24,4.24,0,0,0-.5,2.5,11.9,11.9,0,0,0,3.49,8.15c3.33,3.33,8.83,3.66,12.49,3.83l2.16.17a59.22,59.22,0,0,1,6.49,6l.17.17v.16s.17,14.48.17,15c.33,0,1.83-.16,2.33-.16,0-.5.16-14.82.16-14.82v-.16l.17-.17a58.48,58.48,0,0,1,6.49-5.83c.17,0,2.17-.16,2.17-.16,3.66-.17,9.15-.5,12.48-3.83a11.92,11.92,0,0,0,3.5-8.16,4.3,4.3,0,0,0-.5-2.49c-.17-.17-.67-.34-2-.5-3.66-.34-10.49.16-13.48,2.83-3.67,3-4.17,7.49-4.5,10.32l-.66.83a25.86,25.86,0,0,1-1.84,2.16l-1.66,1.83a.23.23,0,0,1-.33,0,.16.16,0,0,1-.17-.16c.17-16,.5-16.32.67-16.48l1.49-1.17c2-1.33,5.66-4,5.66-6.32,0-1.83-1.83-3-3.66-4a10.57,10.57,0,0,1-3-2.16c-.5-1.5-1.5-2.33-2.5-2.33S268.82,175.35,268.32,176.85Zm11.08,37.24c-3.24,2.72-3.62,6.48-4,9.07l-.13.91s-.78.91-1.17,1.29h3l.52-.38,1.94-.13c3.11-.13,7.9-.39,10.88-3.37a10.35,10.35,0,0,0,3.11-7.13,4.19,4.19,0,0,0-.52-2.2,3.49,3.49,0,0,0-1.81-.52C288,211.37,282,211.89,279.4,214.09Zm-29-2.33a3.58,3.58,0,0,0-1.81.52,4.19,4.19,0,0,0-.52,2.2,9.84,9.84,0,0,0,3.11,7.13c3,3,7.77,3.24,10.88,3.37l1.82.13a11.19,11.19,0,0,1,1.29,1s1.82-.26,2.59-.26c-.26-.26-1.42-1.55-1.42-1.55s-.13-1-.13-1c-.26-2.59-.78-6.35-4-9.07C259.58,211.89,253.62,211.37,250.38,211.76ZM371,212a3.54,3.54,0,0,0-1.81.52,4.19,4.19,0,0,0-.52,2.2,9.87,9.87,0,0,0,3.11,7.13c3,3,7.77,3.24,10.88,3.36l1.81.13c.13,0,.65.52.65.52H388c-.39-.39-1.16-1.29-1.16-1.29s-.13-1-.13-1c-.26-2.59-.78-6.35-4-9.07C380.19,212.15,374.23,211.63,371,212Zm29,2.33h0c-3.24,2.72-3.63,6.48-4,9.07l-.13.91a12.14,12.14,0,0,1-1.42,1.68c.52,0,2.59.26,2.72.26h0l1-1,1.94-.12c3.11-.13,7.9-.39,10.88-3.37a10.4,10.4,0,0,0,3.11-7.13,4.19,4.19,0,0,0-.52-2.2,3.58,3.58,0,0,0-1.81-.52C408.56,211.63,402.6,212.15,400,214.35Zm-63.35,23.58a9.16,9.16,0,0,1,.39,1.81,92.65,92.65,0,0,1,13.6,1.43,14.69,14.69,0,0,1,1.43-1.43c.64-1.29,15.28-6.86,29.92-7,14.25-.91,28.11,3.5,28.76,4.53v.26a.45.45,0,0,1-.26.13,83.85,83.85,0,0,0-28.37-3.24c-14.64.39-28.5,6-28.89,6.87l-.52.26a63.47,63.47,0,0,1,10.63,3.11,5.59,5.59,0,0,1,1.29-.78c.65-.65,12.44-4,24.1-2.85,11.66.52,22.15,5.18,22.41,5.7v.13c-.13.26-.13.26-1.68-.26-3.24-1-11.79-3.76-20.86-4-11.4-.9-21.89,2.21-23.19,2.85a59.1,59.1,0,0,1,7.51,3.76l.26.13a.13.13,0,0,1,.13.13,2.45,2.45,0,0,1,1-.26,70.19,70.19,0,0,1,18.26,1.43c8.43,1.55,15.94,6,16.2,6.6v.13c-.13.26-.26.13-1.82-.52-2.72-1.16-8.42-3.75-14.63-4.66A72.35,72.35,0,0,0,375.78,251a58.59,58.59,0,0,1,10.76,8.3,6.35,6.35,0,0,1,.64-.26c.39-.39,6.74.26,11.92,2.72,5,2.07,9.33,6.09,9.33,6.73v.13c-.13.26-.39,0-1.55-.77a36.92,36.92,0,0,0-8.43-4.67,28.81,28.81,0,0,0-10.36-2.46c7.51,7.64,12.18,16.06,12.18,17h0l-.13.13c-.13,0-.13,0-.78-1a85.53,85.53,0,0,0-12.31-15.28v1.42c0,2.85.39,8.16.65,11.66.13,2.2.26,3.24.26,3.76s0,.39-.13.39-.39-.26-.52-.39c-.77-1.56-2.07-11.4-2.07-15.81a5,5,0,0,1,.26-2.07.45.45,0,0,0,.13-.26,58.85,58.85,0,0,0-11.79-8.55,8.09,8.09,0,0,0-.13,2.08c0,2.72.26,7.12.39,10.62.13,2.85.26,4.27.26,4.92s0,.65-.13.65a.48.48,0,0,1-.39-.26c-1-2.07-2.33-18-1.55-18.78h0v-.13a51.9,51.9,0,0,0-8.55-4,46.25,46.25,0,0,0-.39,6.61,9.33,9.33,0,0,0,.13,2.46v.26a.13.13,0,0,1-.13.13.52.52,0,0,1-.52-.26c-.78-.78-1-4.41-1-7a13.19,13.19,0,0,1,.26-2.85,85.31,85.31,0,0,0-25-4.4,8.73,8.73,0,0,1-.39,1c18.53,6.74,33,24.88,36,35A33.91,33.91,0,0,1,374.1,287a30.24,30.24,0,0,1-.26,3.76c5.83.64,12.31-.26,16.71-2.6l.26-.12h.13l.26.12c5.57,2.73,11.14,2.73,15.68,0,4.79-3,7.64-8.67,7.77-15.28v-.39a.13.13,0,0,1,.13-.13l.26-.13c3.88-2.46,6.21-5.57,7-9.46,1-5.18-1-10.49-3.37-13.73l-.13-.26v-.13l.13-.26c2.72-9.58-1.29-14.12-5.05-16.19-3.37-1.94-10.23-4.27-23.58-4.79C378.63,226.92,355.06,228.73,336.66,237.93Zm-66.07-10.49c-13.47.52-20.21,2.85-23.58,4.79-3.75,2.07-7.77,6.74-5,16.19l.13.26v.13l-.13.26c-2.33,3.24-4.4,8.55-3.37,13.73a14.68,14.68,0,0,0,7,9.46l.26.13.13.13v.39c.13,6.61,3,12.31,7.77,15.28,4.53,2.73,10.11,2.73,15.68,0l.25-.12h.13l.26.12c4.41,2.34,10.89,3.24,16.71,2.6a32.51,32.51,0,0,1-.25-3.76A33.17,33.17,0,0,1,288,277.7c3-10,17.49-28.24,36-35a7.35,7.35,0,0,0-.38-1,89.17,89.17,0,0,0-25,4.4,13.19,13.19,0,0,1,.26,2.85c0,2.72-.26,6.22-1,7-.26.26-.39.26-.52.26a.13.13,0,0,1-.13-.13v-.26c0-.13.13-1.17.13-2.46a43.8,43.8,0,0,0-.39-6.61,57.43,57.43,0,0,0-8.55,4,.41.41,0,0,0,.13.25,5,5,0,0,1,.26,2.08c0,4.53-1,15-1.82,16.58,0,.13-.13.39-.38.26s-.13,0-.13-.78.13-2.07.26-4.92c.12-3.5.38-7.9.38-10.49a8.09,8.09,0,0,0-.13-2.08,60.25,60.25,0,0,0-11.78,8.55,1.68,1.68,0,0,1,.25.39,3.85,3.85,0,0,1,.26,1.81c0,4.28-1.29,14.25-2.07,15.94a.58.58,0,0,1-.52.39c-.13,0-.13,0-.13-.39s.13-1.43.26-3.63c.26-3.5.65-8.81.65-11.66v-1.42a85.64,85.64,0,0,0-12.31,15.28c-.64,1-.64,1-.77,1a.13.13,0,0,1-.13-.13h0c0-.91,4.66-9.2,12.17-17a27.81,27.81,0,0,0-10.36,2.46A36.59,36.59,0,0,0,254,268c-1.17.77-1.43,1-1.56.77v-.13c.13-.64,4.28-4.66,9.46-6.73,5.18-2.59,11.4-3.11,11.92-2.72a1.85,1.85,0,0,1,.52.26,64.84,64.84,0,0,1,10.75-8.3,71.66,71.66,0,0,0-16.58,1.17A64.68,64.68,0,0,0,253.75,257c-1.55.65-1.68.78-1.81.52v-.13c.26-.65,7.77-5.05,16.19-6.6a77.76,77.76,0,0,1,18.27-1.43,2.44,2.44,0,0,1,1,.26c.13,0,.26,0,.26-.13h0l.26-.13a69.22,69.22,0,0,1,7.51-3.76,61.41,61.41,0,0,0-23.18-2.85c-9.07.26-17.62,3-20.86,4-1.56.52-1.56.52-1.69.26v-.13c.26-.52,10.76-5.18,22.42-5.7,11.66-1.17,23.44,2.2,24.22,2.85a3.41,3.41,0,0,1,1.17.65,82.78,82.78,0,0,1,10.62-3.11,1.61,1.61,0,0,1-.39-.26c-.52-1-14.25-6.61-29-7a82.76,82.76,0,0,0-28.37,3.24c-.13,0-.13,0-.26-.13a.18.18,0,0,1,0-.26c.65-1,14.51-5.44,28.76-4.53,14.64.13,29.28,5.7,29.93,7.12a14.07,14.07,0,0,1,1.42,1.3,92.79,92.79,0,0,1,13.61-1.43,4.56,4.56,0,0,1,.38-1.81C305.31,228.73,281,227.05,270.59,227.44Zm16.58,21.89ZM325,240a5.19,5.19,0,1,0,5.18-5.18A5.2,5.2,0,0,0,325,240Zm6.09,6.87v2.46c.26,0,1.43.26,1.43.26,1.16-.13,13.21,6.48,21,16.32,8.42,9.46,11.4,21.77,11,22.67,0,.13-.13.13-.26.13s-.13,0-.26-.64c-3.36-10.63-8.16-17.36-11.65-21.12-7.91-9.72-19.44-15.68-20.34-15.55a8.66,8.66,0,0,0-.91-.39v8.81a5.9,5.9,0,0,1,1,.26c.9-.39,10.75,5.44,16.58,14.38,6.35,8.42,8.68,18.79,8.42,19.18,0,.13-.13.13-.26.13a6.34,6.34,0,0,1-.78-1.82,56.8,56.8,0,0,0-8.55-16.45c-6-8.68-15-13.86-15.8-13.6h-.13a1.87,1.87,0,0,1-.39-.26v9.71c.26,0,.78.13.91.13a2.21,2.21,0,0,1,.77.13c2.34,1,9.72,6.61,12.18,15.16,3.24,8.81,3.63,27.8,3.37,28.05s-.52-.25-.91-2.59c-.52-3.36-1.55-19-3.88-24.94-3-9.2-11.14-14.38-11.92-14.12h-.13a.57.57,0,0,0-.39-.13c0,.52-.13,10.88-.13,11.14a6.12,6.12,0,0,0,.65.26c.9-.13,5.7,5.83,7.12,12.69,1.82,6.61,1.56,22.62,1.3,23l-.13.13c-.26,0-.39-.26-.52-2.34-.26-2.59-.78-16.13-2.07-20.28-1.56-6.35-5.57-11.14-6.35-11.53-.26,27.21-.39,36.48-.78,36.48s-.52-9.27-.77-36.48c-.78.39-4.8,5.18-6.35,11.53-1.3,4.15-1.82,17.69-2.08,20.28-.25,2.08-.25,2.34-.51,2.34a.13.13,0,0,1-.13-.13c-.26-.39-.52-16.4,1.29-23,1.56-6.86,6.22-12.82,7.26-12.69a6.12,6.12,0,0,0,.65-.26c0-.26,0-10.49-.13-11.14a.64.64,0,0,1-.39.13H329c-.78-.26-8.94,4.92-11.92,14.12-2.33,6-3.37,21.58-3.89,24.94-.39,2.47-.52,2.72-.77,2.72-.39-.38,0-19.37,3.23-28.18,2.47-8.55,9.85-14.12,12.18-15.16.52-.26.65-.26.78-.13s.65-.13.91-.13v-9.71a1.61,1.61,0,0,0-.39.26H329c-.78-.26-9.85,5.05-15.81,13.6A57.31,57.31,0,0,0,304.66,292c-.52,1.56-.65,1.82-.77,1.82s-.26,0-.26-.13c-.26-.39,2.07-10.76,8.42-19.18,5.83-8.94,15.54-14.77,16.71-14.38h0a5.3,5.3,0,0,0,.91-.26V251l-.78.39c-.91-.13-12.44,5.83-20.34,15.55-3.5,3.76-8.29,10.36-11.66,21.12l-.26.64c-.13,0-.26,0-.26-.13-.39-.9,2.59-13.21,11-22.67,7.78-9.84,19.82-16.45,21.12-16.32a10.47,10.47,0,0,0,1.29-.26v-2.46a7,7,0,0,1-4.53-2.72c-17.23,6-32.52,22.67-35.75,33.94a32.52,32.52,0,0,0-1.3,9.07c0,7.77,3.11,23.39,8.55,25.33l.39.13a.13.13,0,0,1,.13.13v.39c.39,4.28,6,12.7,17.1,13.09h.26s.13,0,.13.12l.13.26a19.1,19.1,0,0,0,15.15,6.87c6.22,0,11.92-2.59,15.16-6.87l.13-.26.13-.12h.26c11.14-.39,16.71-8.81,17.1-13.09v-.39c0-.13,0-.13.13-.13l.39-.13c5.44-1.94,8.55-17.56,8.55-25.33a32.52,32.52,0,0,0-1.3-9.07c-3.37-11.27-18.65-28-35.23-33.94A5.88,5.88,0,0,1,331.09,246.87Zm30.83-1Zm-63.48,0Zm74.88,3.76ZM331,285.6Zm-1.55-.13Z"/></clipPath></defs><path class="cls-1" d="M330.17,157.93h0c-.31,0-.61.15-1.38,1.08a46.25,46.25,0,0,1-6,6.15l-.15.16a3,3,0,0,0-.92,2.15,3,3,0,0,0,.92,2.16,40.65,40.65,0,0,1,5.54,6l.31.61v12.32a.84.84,0,0,1-.62.92.92.92,0,0,1-1.07-.15l-6.62-4.93-.46-.77c-.16-2.15-.16-3.54-.16-6.15a2.84,2.84,0,0,0-.61-2,2.29,2.29,0,0,0-2-.62h-.3a47.92,47.92,0,0,1-8-.15,4,4,0,0,0-1.54.15,2.12,2.12,0,0,0-.15,1.54,69.57,69.57,0,0,1,.15,8v.31a2.84,2.84,0,0,0,.62,2,2.29,2.29,0,0,0,2,.62,63.85,63.85,0,0,1,7.7.15l1.07-.15a1.35,1.35,0,0,1,1.08.15l8.47,6.31a.94.94,0,0,1,.46.92v13.4a.84.84,0,0,1-.62.92,1,1,0,0,1-1.07-.15l-7.08-5.39-.47-.77c-.15-2.16-.15-3.7-.15-6.47a2.35,2.35,0,0,0-.77-2,2.93,2.93,0,0,0-2-.77H316a49.64,49.64,0,0,1-8.31-.15,3.53,3.53,0,0,0-1.54.15A2.08,2.08,0,0,0,306,195a51.28,51.28,0,0,1,.15,8.31v.31a2.35,2.35,0,0,0,.77,2,3.26,3.26,0,0,0,2,.77,46.57,46.57,0,0,1,8,.31l1.24-.15a.93.93,0,0,1,.92.15l9.08,6.77a.93.93,0,0,1,.46.93v13.23a.85.85,0,0,1-.61.93,1,1,0,0,1-1.08-.16l-7.54-5.69-.77-.46c-.16-2.31-.16-3.85-.16-6.62a3,3,0,0,0-.77-2.16,3,3,0,0,0-2.15-.77h-.31a53.09,53.09,0,0,1-8.62-.15c-1.07-.15-1.54.15-1.69.31a5.31,5.31,0,0,0,0,1.69,53.09,53.09,0,0,1,.15,8.62v.31a2.67,2.67,0,0,0,2.93,2.92,37.93,37.93,0,0,1,8.31.31l1.23-.15a1.35,1.35,0,0,1,1.08.15s8.93,6.62,9.23,6.93a6.7,6.7,0,0,1,4.93,0c.15-.16,9.23-6.93,9.23-6.93.31-.15.62-.31.93-.15l1.23.15a74.47,74.47,0,0,1,8.31-.31,3,3,0,0,0,2.15-.77,3,3,0,0,0,.77-2.15v-.31a54.28,54.28,0,0,1,.16-8.62c.15-1.08,0-1.54-.31-1.69-.15-.16-.62-.31-1.69-.31a51.29,51.29,0,0,1-8.47.15h-.31a2.67,2.67,0,0,0-2.92,2.93,46.43,46.43,0,0,1-.15,6.62l-.47.77-7.54,5.69a.94.94,0,0,1-1.08.15A1.26,1.26,0,0,1,332,228V214.72a1.33,1.33,0,0,1,.46-.92l9.08-6.77a1.27,1.27,0,0,1,1.08-.16l1.23.16a69,69,0,0,1,8-.31,2.35,2.35,0,0,0,2-.77,2.88,2.88,0,0,0,.77-2v-.31a50.77,50.77,0,0,1,.16-8.31,1.22,1.22,0,0,0-1.69-1.69,72.36,72.36,0,0,1-8.16.15h-.31a2.38,2.38,0,0,0-2,.77,2.93,2.93,0,0,0-.77,2,45.46,45.46,0,0,1-.15,6.47l-.47.77-7.08,5.38a.94.94,0,0,1-1.07.16,1.28,1.28,0,0,1-.62-.93V195a1.31,1.31,0,0,1,.46-.92l8.47-6.31a1.24,1.24,0,0,1,1.07-.16l1.08.16a43.08,43.08,0,0,1,7.7-.16,2.84,2.84,0,0,0,2-.61,2.26,2.26,0,0,0,.61-2v-.31a46.78,46.78,0,0,1,.16-8,3.73,3.73,0,0,0-.16-1.54,2,2,0,0,0-1.53-.16,69.75,69.75,0,0,1-8,.16H344a2.84,2.84,0,0,0-2,.61,2.26,2.26,0,0,0-.61,2,39.23,39.23,0,0,1-.16,6.16l-.46.77-6.62,4.93a1,1,0,0,1-1.07.15,1.27,1.27,0,0,1-.62-.92V176.55l.31-.61a66.27,66.27,0,0,1,5.54-6,3,3,0,0,0,.92-2.15,3.08,3.08,0,0,0-.92-2.16l-.15-.15a55.52,55.52,0,0,1-6-6.16C330.79,158.08,330.48,157.93,330.17,157.93ZM389,179.2h0a8.25,8.25,0,0,1-2.87,2.23c-1.75.95-3.5,2.07-3.5,3.82,0,2.23,3.5,4.78,5.41,6.06l1.44,1.11c.16.16.48.64.64,15.78,0,.16,0,.16-.16.16h-.32l-1.6-1.76-1.75-1.91c0-.16-.16-1.12-.16-1.12-.32-2.7-.79-7-4.3-9.87-2.87-2.39-9.4-3-12.91-2.71-1.27.16-1.91.32-1.91.48-.79,1.11-1.11,6.21,2.87,10.19,3.19,3.19,8.44,3.51,11.95,3.67l2.07.16a56,56,0,0,1,6.22,5.73l.16.16v.16s.15,13.86.15,14.18c.32,0,1.76.16,2.24.16,0-.48.15-14.34.15-14.34v-.16l.16-.16a54.41,54.41,0,0,1,6.22-5.57c.16,0,2.07-.16,2.07-.16,3.51-.16,8.76-.48,11.95-3.67a11.39,11.39,0,0,0,3.35-7.81,4.12,4.12,0,0,0-.48-2.39,4.26,4.26,0,0,0-1.91-.47c-3.51-.32-10,.16-12.91,2.71-3.51,2.86-4,7.17-4.3,9.87l-.16,1.12a23.7,23.7,0,0,1-1.75,2.07l-1.6,1.75a.22.22,0,0,1-.32,0,.16.16,0,0,1-.16-.16c.32-15.29.48-15.61.64-15.77l1.44-1.12c1.91-1.27,5.41-3.82,5.41-6.05,0-1.75-1.75-2.87-3.5-3.82a10.22,10.22,0,0,1-2.87-2.08c-.48-1.43-1.43-2.23-2.39-2.23A2.63,2.63,0,0,0,389,179.2Zm-120.72-2.35h0a8.46,8.46,0,0,1-3,2.33c-1.83,1-3.66,2.17-3.66,4,0,2.33,3.66,5,5.66,6.32l1.5,1.17c.16.16.5.66.66,16.48,0,.16,0,.16-.16.16H269l-1.66-1.83-1.83-2c0-.16-.17-1.16-.17-1.16-.33-2.83-.83-7.32-4.49-10.32-3-2.5-9.82-3.16-13.48-2.83-1.34.17-2,.33-2,.5a4.24,4.24,0,0,0-.5,2.5,11.9,11.9,0,0,0,3.49,8.15c3.33,3.33,8.83,3.66,12.49,3.83l2.16.17a59.22,59.22,0,0,1,6.49,6l.17.17v.16s.17,14.48.17,15c.33,0,1.83-.16,2.33-.16,0-.5.16-14.82.16-14.82v-.16l.17-.17a58.48,58.48,0,0,1,6.49-5.83c.17,0,2.17-.16,2.17-.16,3.66-.17,9.15-.5,12.48-3.83a11.92,11.92,0,0,0,3.5-8.16,4.3,4.3,0,0,0-.5-2.49c-.17-.17-.67-.34-2-.5-3.66-.34-10.49.16-13.48,2.83-3.67,3-4.17,7.49-4.5,10.32l-.66.83a25.86,25.86,0,0,1-1.84,2.16l-1.66,1.83a.23.23,0,0,1-.33,0,.16.16,0,0,1-.17-.16c.17-16,.5-16.32.67-16.48l1.49-1.17c2-1.33,5.66-4,5.66-6.32,0-1.83-1.83-3-3.66-4a10.57,10.57,0,0,1-3-2.16c-.5-1.5-1.5-2.33-2.5-2.33S268.82,175.35,268.32,176.85Zm11.08,37.24c-3.24,2.72-3.62,6.48-4,9.07l-.13.91s-.78.91-1.17,1.29h3l.52-.38,1.94-.13c3.11-.13,7.9-.39,10.88-3.37a10.35,10.35,0,0,0,3.11-7.13,4.19,4.19,0,0,0-.52-2.2,3.49,3.49,0,0,0-1.81-.52C288,211.37,282,211.89,279.4,214.09Zm-29-2.33a3.58,3.58,0,0,0-1.81.52,4.19,4.19,0,0,0-.52,2.2,9.84,9.84,0,0,0,3.11,7.13c3,3,7.77,3.24,10.88,3.37l1.82.13a11.19,11.19,0,0,1,1.29,1s1.82-.26,2.59-.26c-.26-.26-1.42-1.55-1.42-1.55s-.13-1-.13-1c-.26-2.59-.78-6.35-4-9.07C259.58,211.89,253.62,211.37,250.38,211.76ZM371,212a3.54,3.54,0,0,0-1.81.52,4.19,4.19,0,0,0-.52,2.2,9.87,9.87,0,0,0,3.11,7.13c3,3,7.77,3.24,10.88,3.36l1.81.13c.13,0,.65.52.65.52H388c-.39-.39-1.16-1.29-1.16-1.29s-.13-1-.13-1c-.26-2.59-.78-6.35-4-9.07C380.19,212.15,374.23,211.63,371,212Zm29,2.33h0c-3.24,2.72-3.63,6.48-4,9.07l-.13.91a12.14,12.14,0,0,1-1.42,1.68c.52,0,2.59.26,2.72.26h0l1-1,1.94-.12c3.11-.13,7.9-.39,10.88-3.37a10.4,10.4,0,0,0,3.11-7.13,4.19,4.19,0,0,0-.52-2.2,3.58,3.58,0,0,0-1.81-.52C408.56,211.63,402.6,212.15,400,214.35Zm-63.35,23.58a9.16,9.16,0,0,1,.39,1.81,92.65,92.65,0,0,1,13.6,1.43,14.69,14.69,0,0,1,1.43-1.43c.64-1.29,15.28-6.86,29.92-7,14.25-.91,28.11,3.5,28.76,4.53v.26a.45.45,0,0,1-.26.13,83.85,83.85,0,0,0-28.37-3.24c-14.64.39-28.5,6-28.89,6.87l-.52.26a63.47,63.47,0,0,1,10.63,3.11,5.59,5.59,0,0,1,1.29-.78c.65-.65,12.44-4,24.1-2.85,11.66.52,22.15,5.18,22.41,5.7v.13c-.13.26-.13.26-1.68-.26-3.24-1-11.79-3.76-20.86-4-11.4-.9-21.89,2.21-23.19,2.85a59.1,59.1,0,0,1,7.51,3.76l.26.13a.13.13,0,0,1,.13.13,2.45,2.45,0,0,1,1-.26,70.19,70.19,0,0,1,18.26,1.43c8.43,1.55,15.94,6,16.2,6.6v.13c-.13.26-.26.13-1.82-.52-2.72-1.16-8.42-3.75-14.63-4.66A72.35,72.35,0,0,0,375.78,251a58.59,58.59,0,0,1,10.76,8.3,6.35,6.35,0,0,1,.64-.26c.39-.39,6.74.26,11.92,2.72,5,2.07,9.33,6.09,9.33,6.73v.13c-.13.26-.39,0-1.55-.77a36.92,36.92,0,0,0-8.43-4.67,28.81,28.81,0,0,0-10.36-2.46c7.51,7.64,12.18,16.06,12.18,17h0l-.13.13c-.13,0-.13,0-.78-1a85.53,85.53,0,0,0-12.31-15.28v1.42c0,2.85.39,8.16.65,11.66.13,2.2.26,3.24.26,3.76s0,.39-.13.39-.39-.26-.52-.39c-.77-1.56-2.07-11.4-2.07-15.81a5,5,0,0,1,.26-2.07.45.45,0,0,0,.13-.26,58.85,58.85,0,0,0-11.79-8.55,8.09,8.09,0,0,0-.13,2.08c0,2.72.26,7.12.39,10.62.13,2.85.26,4.27.26,4.92s0,.65-.13.65a.48.48,0,0,1-.39-.26c-1-2.07-2.33-18-1.55-18.78h0v-.13a51.9,51.9,0,0,0-8.55-4,46.25,46.25,0,0,0-.39,6.61,9.33,9.33,0,0,0,.13,2.46v.26a.13.13,0,0,1-.13.13.52.52,0,0,1-.52-.26c-.78-.78-1-4.41-1-7a13.19,13.19,0,0,1,.26-2.85,85.31,85.31,0,0,0-25-4.4,8.73,8.73,0,0,1-.39,1c18.53,6.74,33,24.88,36,35A33.91,33.91,0,0,1,374.1,287a30.24,30.24,0,0,1-.26,3.76c5.83.64,12.31-.26,16.71-2.6l.26-.12h.13l.26.12c5.57,2.73,11.14,2.73,15.68,0,4.79-3,7.64-8.67,7.77-15.28v-.39a.13.13,0,0,1,.13-.13l.26-.13c3.88-2.46,6.21-5.57,7-9.46,1-5.18-1-10.49-3.37-13.73l-.13-.26v-.13l.13-.26c2.72-9.58-1.29-14.12-5.05-16.19-3.37-1.94-10.23-4.27-23.58-4.79C378.63,226.92,355.06,228.73,336.66,237.93Zm-66.07-10.49c-13.47.52-20.21,2.85-23.58,4.79-3.75,2.07-7.77,6.74-5,16.19l.13.26v.13l-.13.26c-2.33,3.24-4.4,8.55-3.37,13.73a14.68,14.68,0,0,0,7,9.46l.26.13.13.13v.39c.13,6.61,3,12.31,7.77,15.28,4.53,2.73,10.11,2.73,15.68,0l.25-.12h.13l.26.12c4.41,2.34,10.89,3.24,16.71,2.6a32.51,32.51,0,0,1-.25-3.76A33.17,33.17,0,0,1,288,277.7c3-10,17.49-28.24,36-35a7.35,7.35,0,0,0-.38-1,89.17,89.17,0,0,0-25,4.4,13.19,13.19,0,0,1,.26,2.85c0,2.72-.26,6.22-1,7-.26.26-.39.26-.52.26a.13.13,0,0,1-.13-.13v-.26c0-.13.13-1.17.13-2.46a43.8,43.8,0,0,0-.39-6.61,57.43,57.43,0,0,0-8.55,4,.41.41,0,0,0,.13.25,5,5,0,0,1,.26,2.08c0,4.53-1,15-1.82,16.58,0,.13-.13.39-.38.26s-.13,0-.13-.78.13-2.07.26-4.92c.12-3.5.38-7.9.38-10.49a8.09,8.09,0,0,0-.13-2.08,60.25,60.25,0,0,0-11.78,8.55,1.68,1.68,0,0,1,.25.39,3.85,3.85,0,0,1,.26,1.81c0,4.28-1.29,14.25-2.07,15.94a.58.58,0,0,1-.52.39c-.13,0-.13,0-.13-.39s.13-1.43.26-3.63c.26-3.5.65-8.81.65-11.66v-1.42a85.64,85.64,0,0,0-12.31,15.28c-.64,1-.64,1-.77,1a.13.13,0,0,1-.13-.13h0c0-.91,4.66-9.2,12.17-17a27.81,27.81,0,0,0-10.36,2.46A36.59,36.59,0,0,0,254,268c-1.17.77-1.43,1-1.56.77v-.13c.13-.64,4.28-4.66,9.46-6.73,5.18-2.59,11.4-3.11,11.92-2.72a1.85,1.85,0,0,1,.52.26,64.84,64.84,0,0,1,10.75-8.3,71.66,71.66,0,0,0-16.58,1.17A64.68,64.68,0,0,0,253.75,257c-1.55.65-1.68.78-1.81.52v-.13c.26-.65,7.77-5.05,16.19-6.6a77.76,77.76,0,0,1,18.27-1.43,2.44,2.44,0,0,1,1,.26c.13,0,.26,0,.26-.13h0l.26-.13a69.22,69.22,0,0,1,7.51-3.76,61.41,61.41,0,0,0-23.18-2.85c-9.07.26-17.62,3-20.86,4-1.56.52-1.56.52-1.69.26v-.13c.26-.52,10.76-5.18,22.42-5.7,11.66-1.17,23.44,2.2,24.22,2.85a3.41,3.41,0,0,1,1.17.65,82.78,82.78,0,0,1,10.62-3.11,1.61,1.61,0,0,1-.39-.26c-.52-1-14.25-6.61-29-7a82.76,82.76,0,0,0-28.37,3.24c-.13,0-.13,0-.26-.13a.18.18,0,0,1,0-.26c.65-1,14.51-5.44,28.76-4.53,14.64.13,29.28,5.7,29.93,7.12a14.07,14.07,0,0,1,1.42,1.3,92.79,92.79,0,0,1,13.61-1.43,4.56,4.56,0,0,1,.38-1.81C305.31,228.73,281,227.05,270.59,227.44Zm16.58,21.89ZM325,240a5.19,5.19,0,1,0,5.18-5.18A5.2,5.2,0,0,0,325,240Zm6.09,6.87v2.46c.26,0,1.43.26,1.43.26,1.16-.13,13.21,6.48,21,16.32,8.42,9.46,11.4,21.77,11,22.67,0,.13-.13.13-.26.13s-.13,0-.26-.64c-3.36-10.63-8.16-17.36-11.65-21.12-7.91-9.72-19.44-15.68-20.34-15.55a8.66,8.66,0,0,0-.91-.39v8.81a5.9,5.9,0,0,1,1,.26c.9-.39,10.75,5.44,16.58,14.38,6.35,8.42,8.68,18.79,8.42,19.18,0,.13-.13.13-.26.13a6.34,6.34,0,0,1-.78-1.82,56.8,56.8,0,0,0-8.55-16.45c-6-8.68-15-13.86-15.8-13.6h-.13a1.87,1.87,0,0,1-.39-.26v9.71c.26,0,.78.13.91.13a2.21,2.21,0,0,1,.77.13c2.34,1,9.72,6.61,12.18,15.16,3.24,8.81,3.63,27.8,3.37,28.05s-.52-.25-.91-2.59c-.52-3.36-1.55-19-3.88-24.94-3-9.2-11.14-14.38-11.92-14.12h-.13a.57.57,0,0,0-.39-.13c0,.52-.13,10.88-.13,11.14a6.12,6.12,0,0,0,.65.26c.9-.13,5.7,5.83,7.12,12.69,1.82,6.61,1.56,22.62,1.3,23l-.13.13c-.26,0-.39-.26-.52-2.34-.26-2.59-.78-16.13-2.07-20.28-1.56-6.35-5.57-11.14-6.35-11.53-.26,27.21-.39,36.48-.78,36.48s-.52-9.27-.77-36.48c-.78.39-4.8,5.18-6.35,11.53-1.3,4.15-1.82,17.69-2.08,20.28-.25,2.08-.25,2.34-.51,2.34a.13.13,0,0,1-.13-.13c-.26-.39-.52-16.4,1.29-23,1.56-6.86,6.22-12.82,7.26-12.69a6.12,6.12,0,0,0,.65-.26c0-.26,0-10.49-.13-11.14a.64.64,0,0,1-.39.13H329c-.78-.26-8.94,4.92-11.92,14.12-2.33,6-3.37,21.58-3.89,24.94-.39,2.47-.52,2.72-.77,2.72-.39-.38,0-19.37,3.23-28.18,2.47-8.55,9.85-14.12,12.18-15.16.52-.26.65-.26.78-.13s.65-.13.91-.13v-9.71a1.61,1.61,0,0,0-.39.26H329c-.78-.26-9.85,5.05-15.81,13.6A57.31,57.31,0,0,0,304.66,292c-.52,1.56-.65,1.82-.77,1.82s-.26,0-.26-.13c-.26-.39,2.07-10.76,8.42-19.18,5.83-8.94,15.54-14.77,16.71-14.38h0a5.3,5.3,0,0,0,.91-.26V251l-.78.39c-.91-.13-12.44,5.83-20.34,15.55-3.5,3.76-8.29,10.36-11.66,21.12l-.26.64c-.13,0-.26,0-.26-.13-.39-.9,2.59-13.21,11-22.67,7.78-9.84,19.82-16.45,21.12-16.32a10.47,10.47,0,0,0,1.29-.26v-2.46a7,7,0,0,1-4.53-2.72c-17.23,6-32.52,22.67-35.75,33.94a32.52,32.52,0,0,0-1.3,9.07c0,7.77,3.11,23.39,8.55,25.33l.39.13a.13.13,0,0,1,.13.13v.39c.39,4.28,6,12.7,17.1,13.09h.26s.13,0,.13.12l.13.26a19.1,19.1,0,0,0,15.15,6.87c6.22,0,11.92-2.59,15.16-6.87l.13-.26.13-.12h.26c11.14-.39,16.71-8.81,17.1-13.09v-.39c0-.13,0-.13.13-.13l.39-.13c5.44-1.94,8.55-17.56,8.55-25.33a32.52,32.52,0,0,0-1.3-9.07c-3.37-11.27-18.65-28-35.23-33.94A5.88,5.88,0,0,1,331.09,246.87Zm30.83-1Zm-63.48,0Zm74.88,3.76ZM331,285.6Zm-1.55-.13Z"/><g class="cls-2"><rect class="cls-1" x="288.21" y="244.15" width="2.68" height="89.33"/><rect class="cls-1" x="290.89" y="244.15" width="3.29" height="89.33"/><rect class="cls-1" x="294.17" y="244.15" width="3.29" height="89.33"/><rect class="cls-1" x="297.46" y="244.15" width="3.29" height="89.33"/><rect class="cls-1" x="300.74" y="244.15" width="3.29" height="89.33"/><rect class="cls-1" x="304.03" y="244.15" width="3.29" height="89.33"/><rect class="cls-1" x="307.31" y="244.15" width="3.29" height="89.33"/><rect class="cls-1" x="310.6" y="244.15" width="3.29" height="89.33"/><rect class="cls-1" x="313.89" y="244.15" width="3.29" height="89.33"/><rect class="cls-1" x="317.17" y="244.15" width="3.29" height="89.33"/><rect class="cls-1" x="320.46" y="244.15" width="3.29" height="89.33"/><rect class="cls-1" x="323.74" y="244.15" width="3.29" height="89.33"/><rect class="cls-1" x="327.03" y="244.15" width="3.29" height="89.33"/><rect class="cls-1" x="330.31" y="244.15" width="3.29" height="89.33"/><rect class="cls-1" x="333.6" y="244.15" width="3.29" height="89.33"/><rect class="cls-1" x="336.88" y="244.15" width="3.29" height="89.33"/><rect class="cls-1" x="340.17" y="244.15" width="3.29" height="89.33"/><rect class="cls-1" x="343.45" y="244.15" width="3.29" height="89.33"/><rect class="cls-1" x="346.74" y="244.15" width="3.29" height="89.33"/><rect class="cls-1" x="350.03" y="244.15" width="3.29" height="89.33"/><rect class="cls-1" x="353.31" y="244.15" width="3.29" height="89.33"/><rect class="cls-1" x="356.6" y="244.15" width="3.29" height="89.33"/><rect class="cls-1" x="359.88" y="244.15" width="3.29" height="89.33"/><rect class="cls-1" x="363.17" y="244.15" width="3.29" height="89.33"/><rect class="cls-1" x="366.45" y="244.15" width="3.29" height="89.33"/><rect class="cls-1" x="369.74" y="244.15" width="2.16" height="89.33"/><rect class="cls-1" x="325" y="234.82" width="2.03" height="10.36"/><rect class="cls-1" x="327.03" y="234.82" width="3.29" height="10.36"/><rect class="cls-1" x="330.31" y="234.82" width="3.29" height="10.36"/><rect class="cls-1" x="333.6" y="234.82" width="1.77" height="10.36"/><rect class="cls-1" x="237.56" y="227.05" width="0.76" height="64.38"/><rect class="cls-1" x="238.32" y="227.05" width="3.29" height="64.38"/><rect class="cls-1" x="241.6" y="227.05" width="3.29" height="64.38"/><rect class="cls-1" x="244.89" y="227.05" width="3.29" height="64.38"/><rect class="cls-1" x="248.18" y="227.05" width="3.29" height="64.38"/><rect class="cls-1" x="251.46" y="227.05" width="3.29" height="64.38"/><rect class="cls-1" x="254.75" y="227.05" width="3.29" height="64.38"/><rect class="cls-1" x="258.03" y="227.05" width="3.29" height="64.38"/><rect class="cls-1" x="261.32" y="227.05" width="3.29" height="64.38"/><rect class="cls-1" x="264.6" y="227.05" width="3.29" height="64.38"/><rect class="cls-1" x="267.89" y="227.05" width="3.29" height="64.38"/><rect class="cls-1" x="271.17" y="227.05" width="3.29" height="64.38"/><rect class="cls-1" x="274.46" y="227.05" width="3.29" height="64.38"/><rect class="cls-1" x="277.75" y="227.05" width="3.29" height="64.38"/><rect class="cls-1" x="281.03" y="227.05" width="3.29" height="64.38"/><rect class="cls-1" x="284.32" y="227.05" width="3.29" height="64.38"/><rect class="cls-1" x="287.6" y="227.05" width="3.29" height="64.38"/><rect class="cls-1" x="290.89" y="227.05" width="3.29" height="64.38"/><rect class="cls-1" x="294.17" y="227.05" width="3.29" height="64.38"/><rect class="cls-1" x="297.46" y="227.05" width="3.29" height="64.38"/><rect class="cls-1" x="300.74" y="227.05" width="3.29" height="64.38"/><rect class="cls-1" x="304.03" y="227.05" width="3.29" height="64.38"/><rect class="cls-1" x="307.31" y="227.05" width="3.29" height="64.38"/><rect class="cls-1" x="310.6" y="227.05" width="3.29" height="64.38"/><rect class="cls-1" x="313.89" y="227.05" width="3.29" height="64.38"/><rect class="cls-1" x="317.17" y="227.05" width="3.29" height="64.38"/><rect class="cls-1" x="320.46" y="227.05" width="3.29" height="64.38"/><rect class="cls-1" x="323.74" y="227.05" width="0.48" height="64.38"/><rect class="cls-1" x="336.66" y="226.92" width="0.22" height="64.51"/><rect class="cls-1" x="336.88" y="226.92" width="3.29" height="64.51"/><rect class="cls-1" x="340.17" y="226.92" width="3.29" height="64.51"/><rect class="cls-1" x="343.45" y="226.92" width="3.29" height="64.51"/><rect class="cls-1" x="346.74" y="226.92" width="3.29" height="64.51"/><rect class="cls-1" x="350.03" y="226.92" width="3.29" height="64.51"/><rect class="cls-1" x="353.31" y="226.92" width="3.29" height="64.51"/><rect class="cls-1" x="356.6" y="226.92" width="3.29" height="64.51"/><rect class="cls-1" x="359.88" y="226.92" width="3.29" height="64.51"/><rect class="cls-1" x="363.17" y="226.92" width="3.29" height="64.51"/><rect class="cls-1" x="366.45" y="226.92" width="3.29" height="64.51"/><rect class="cls-1" x="369.74" y="226.92" width="3.29" height="64.51"/><rect class="cls-1" x="373.02" y="226.92" width="3.29" height="64.51"/><rect class="cls-1" x="376.31" y="226.92" width="3.29" height="64.51"/><rect class="cls-1" x="379.59" y="226.92" width="3.29" height="64.51"/><rect class="cls-1" x="382.88" y="226.92" width="3.29" height="64.51"/><rect class="cls-1" x="386.17" y="226.92" width="3.29" height="64.51"/><rect class="cls-1" x="389.45" y="226.92" width="3.29" height="64.51"/><rect class="cls-1" x="392.74" y="226.92" width="3.29" height="64.51"/><rect class="cls-1" x="396.02" y="226.92" width="3.29" height="64.51"/><rect class="cls-1" x="399.31" y="226.92" width="3.29" height="64.51"/><rect class="cls-1" x="402.59" y="226.92" width="3.29" height="64.51"/><rect class="cls-1" x="405.88" y="226.92" width="3.29" height="64.51"/><rect class="cls-1" x="409.16" y="226.92" width="3.29" height="64.51"/><rect class="cls-1" x="412.45" y="226.92" width="3.29" height="64.51"/><rect class="cls-1" x="415.74" y="226.92" width="3.29" height="64.51"/><rect class="cls-1" x="419.02" y="226.92" width="3.29" height="64.51"/><rect class="cls-1" x="422.31" y="226.92" width="0.76" height="64.51"/><rect class="cls-1" x="394.44" y="211.63" width="1.58" height="14.64"/><rect class="cls-1" x="396.02" y="211.63" width="3.29" height="14.64"/><rect class="cls-1" x="399.31" y="211.63" width="3.29" height="14.64"/><rect class="cls-1" x="402.59" y="211.63" width="3.29" height="14.64"/><rect class="cls-1" x="405.88" y="211.63" width="3.29" height="14.64"/><rect class="cls-1" x="409.16" y="211.63" width="3.29" height="14.64"/><rect class="cls-1" x="412.45" y="211.63" width="1.68" height="14.64"/><rect class="cls-1" x="368.66" y="211.63" width="1.08" height="14.25"/><rect class="cls-1" x="369.74" y="211.63" width="3.29" height="14.25"/><rect class="cls-1" x="373.02" y="211.63" width="3.29" height="14.25"/><rect class="cls-1" x="376.31" y="211.63" width="3.29" height="14.25"/><rect class="cls-1" x="379.59" y="211.63" width="3.29" height="14.25"/><rect class="cls-1" x="382.88" y="211.63" width="3.29" height="14.25"/><rect class="cls-1" x="386.17" y="211.63" width="1.8" height="14.25"/><rect class="cls-1" x="248.05" y="211.37" width="0.12" height="14.77"/><rect class="cls-1" x="248.18" y="211.37" width="3.29" height="14.77"/><rect class="cls-1" x="251.46" y="211.37" width="3.29" height="14.77"/><rect class="cls-1" x="254.75" y="211.37" width="3.29" height="14.77"/><rect class="cls-1" x="258.03" y="211.37" width="3.29" height="14.77"/><rect class="cls-1" x="261.32" y="211.37" width="3.29" height="14.77"/><rect class="cls-1" x="264.6" y="211.37" width="3.14" height="14.77"/><rect class="cls-1" x="274.09" y="211.37" width="0.37" height="13.99"/><rect class="cls-1" x="274.46" y="211.37" width="3.29" height="13.99"/><rect class="cls-1" x="277.75" y="211.37" width="3.29" height="13.99"/><rect class="cls-1" x="281.03" y="211.37" width="3.29" height="13.99"/><rect class="cls-1" x="284.32" y="211.37" width="3.29" height="13.99"/><rect class="cls-1" x="287.6" y="211.37" width="3.29" height="13.99"/><rect class="cls-1" x="290.89" y="211.37" width="2.64" height="13.99"/><rect class="cls-1" x="244.85" y="174.69" width="0.04" height="50.94"/><rect class="cls-1" x="244.89" y="174.69" width="3.29" height="50.94"/><rect class="cls-1" x="248.18" y="174.69" width="3.29" height="50.94"/><rect class="cls-1" x="251.46" y="174.69" width="3.29" height="50.94"/><rect class="cls-1" x="254.75" y="174.69" width="3.29" height="50.94"/><rect class="cls-1" x="258.03" y="174.69" width="3.29" height="50.94"/><rect class="cls-1" x="261.32" y="174.69" width="3.29" height="50.94"/><rect class="cls-1" x="264.6" y="174.69" width="3.29" height="50.94"/><rect class="cls-1" x="267.89" y="174.69" width="3.29" height="50.94"/><rect class="cls-1" x="271.17" y="174.69" width="3.29" height="50.94"/><rect class="cls-1" x="274.46" y="174.69" width="3.29" height="50.94"/><rect class="cls-1" x="277.75" y="174.69" width="3.29" height="50.94"/><rect class="cls-1" x="281.03" y="174.69" width="3.29" height="50.94"/><rect class="cls-1" x="284.32" y="174.69" width="3.29" height="50.94"/><rect class="cls-1" x="287.6" y="174.69" width="3.29" height="50.94"/><rect class="cls-1" x="290.89" y="174.69" width="3.29" height="50.94"/><rect class="cls-1" x="294.17" y="174.69" width="2.94" height="50.94"/><rect class="cls-1" x="365.94" y="177.44" width="0.52" height="48.44"/><rect class="cls-1" x="366.45" y="177.44" width="3.29" height="48.44"/><rect class="cls-1" x="369.74" y="177.44" width="3.29" height="48.44"/><rect class="cls-1" x="373.02" y="177.44" width="3.29" height="48.44"/><rect class="cls-1" x="376.31" y="177.44" width="3.29" height="48.44"/><rect class="cls-1" x="379.59" y="177.44" width="3.29" height="48.44"/><rect class="cls-1" x="382.88" y="177.44" width="3.29" height="48.44"/><rect class="cls-1" x="386.17" y="177.44" width="3.29" height="48.44"/><rect class="cls-1" x="389.45" y="177.44" width="3.29" height="48.44"/><rect class="cls-1" x="392.74" y="177.44" width="3.29" height="48.44"/><rect class="cls-1" x="396.02" y="177.44" width="3.29" height="48.44"/><rect class="cls-1" x="399.31" y="177.44" width="3.29" height="48.44"/><rect class="cls-1" x="402.59" y="177.44" width="3.29" height="48.44"/><rect class="cls-1" x="405.88" y="177.44" width="3.29" height="48.44"/><rect class="cls-1" x="409.16" y="177.44" width="3.29" height="48.44"/><rect class="cls-1" x="412.45" y="177.44" width="3.29" height="48.44"/><rect class="cls-1" x="415.74" y="177.44" width="0.87" height="48.44"/><rect class="cls-1" x="304.78" y="157.93" width="2.54" height="75.73"/><rect class="cls-1" x="307.31" y="157.93" width="3.29" height="75.73"/><rect class="cls-1" x="310.6" y="157.93" width="3.29" height="75.73"/><rect class="cls-1" x="313.89" y="157.93" width="3.29" height="75.73"/><rect class="cls-1" x="317.17" y="157.93" width="3.29" height="75.73"/><rect class="cls-1" x="320.46" y="157.93" width="3.29" height="75.73"/><rect class="cls-1" x="323.74" y="157.93" width="3.29" height="75.73"/><rect class="cls-1" x="327.03" y="157.93" width="3.29" height="75.73"/><rect class="cls-1" x="330.31" y="157.93" width="3.29" height="75.73"/><rect class="cls-1" x="333.6" y="157.93" width="3.29" height="75.73"/><rect class="cls-1" x="336.88" y="157.93" width="3.29" height="75.73"/><rect class="cls-1" x="340.17" y="157.93" width="3.29" height="75.73"/><rect class="cls-1" x="343.45" y="157.93" width="3.29" height="75.73"/><rect class="cls-1" x="346.74" y="157.93" width="3.29" height="75.73"/><rect class="cls-1" x="350.03" y="157.93" width="3.29" height="75.73"/><rect class="cls-1" x="353.31" y="157.93" width="2.41" height="75.73"/></g><path class="cls-1" d="M329.65,357.22A113.52,113.52,0,1,1,443.17,243.7,113.65,113.65,0,0,1,329.65,357.22Zm0-226.46A112.94,112.94,0,1,0,442.59,243.7,113.07,113.07,0,0,0,329.65,130.76Z"/><path class="cls-1" d="M329.65,424.1a180.39,180.39,0,1,1,127.57-52.83A179.21,179.21,0,0,1,329.65,424.1Zm0-354.43c-96,0-174,78.07-174,174s78.06,174,174,174,174-78.07,174-174S425.61,69.67,329.65,69.67Z"/><path class="cls-1" d="M207.69,207.62l-26.11-9.48,5-13.77,2.84,1-3.88,10.67,7.49,2.72,3.88-10.66,2.89,1-3.88,10.67,10,3.63,3.88-10.66,2.89,1.05Z"/><path class="cls-1" d="M221.74,179.22l-21.54-2.95L214.54,189l-1.67,2.76L191.09,172l24.68,3.58-14.62-20.2,27.61,10.13-1.67,2.76-18-6.76Z"/><path class="cls-1" d="M231.21,163.58l-20.42-18.83,3.92-4.25a23.76,23.76,0,0,1,3.28-3.1,6.27,6.27,0,0,1,5.74-.91,7.91,7.91,0,0,1,3,1.76,6.21,6.21,0,0,1,2,3.27,5.5,5.5,0,0,1-.56,3.65,5.94,5.94,0,0,1,4.27-1.37,7.33,7.33,0,0,1,4.37,2.08,8.77,8.77,0,0,1,1.93,2.61,7.56,7.56,0,0,1,.76,3,6.54,6.54,0,0,1-.76,3.24,25,25,0,0,1-3.59,4.59Zm-16.13-19.26,6.84,6.3,1.73-1.88q2.4-2.6,2.62-4.35a3.94,3.94,0,0,0-1.56-3.4c-1.32-1.21-2.54-1.73-3.67-1.56s-2.53,1.18-4.22,3Zm8.75,8.06,7.44,6.87,1.74-1.88a25.37,25.37,0,0,0,2.43-2.94,4.48,4.48,0,0,0,.73-1.86,4.07,4.07,0,0,0-.33-2.14,6.14,6.14,0,0,0-3.76-3.34,4.23,4.23,0,0,0-2.44.08,4.68,4.68,0,0,0-1.46.74,15.44,15.44,0,0,0-2,1.88l-.66.71Z"/><path class="cls-1" d="M234.86,120.35l27.63,15.16-2.84,2.19-8-4.55L243,139.78l2.34,8.94-2.84,2.19Zm4.46,5.79,2.74,10.8,7-5.4Z"/><path class="cls-1" d="M265.9,116.55a9.46,9.46,0,0,1,5.05.78,7.48,7.48,0,0,1,3.36,3.34,8.17,8.17,0,0,1,.78,6.59,10,10,0,0,1-10.22,6.25,8.28,8.28,0,0,1-4.9-2.78l1.94-2.73a7.42,7.42,0,0,0,3.57,2.42,4.88,4.88,0,0,0,3.7-.51,5.65,5.65,0,0,0,2.86-3.16,4.86,4.86,0,0,0-.41-4,5.13,5.13,0,0,0-2.47-2.34,8.1,8.1,0,0,0-4-.51l-3.66.33a9.54,9.54,0,0,1-5-.68,7,7,0,0,1-3.26-3.2,6.18,6.18,0,0,1-.38-5.35,8.17,8.17,0,0,1,4-4.36,8.55,8.55,0,0,1,4.32-1.12,7.27,7.27,0,0,1,4,1.41l-1.59,2.83a7.06,7.06,0,0,0-3-1.13,4.54,4.54,0,0,0-2.68.55,4.21,4.21,0,0,0-2.14,2.44,4.1,4.1,0,0,0,2.34,4.94,7.52,7.52,0,0,0,3.4.35Z"/><path class="cls-1" d="M285.54,108.37a9.46,9.46,0,0,1,4.88,1.51,7.57,7.57,0,0,1,2.83,3.81,8.18,8.18,0,0,1-.21,6.63,9,9,0,0,1-5.29,4.39A8.86,8.86,0,0,1,282,125a8.33,8.33,0,0,1-4.44-3.48l2.32-2.41a7.46,7.46,0,0,0,3.18,2.93,5,5,0,0,0,3.73,0,5.64,5.64,0,0,0,3.3-2.71,4.82,4.82,0,0,0,.19-4,5.14,5.14,0,0,0-2.1-2.68,8.06,8.06,0,0,0-3.83-1.09l-3.67-.22a9.61,9.61,0,0,1-4.89-1.41,7.14,7.14,0,0,1-2.75-3.65,6.28,6.28,0,0,1,.42-5.35,8.22,8.22,0,0,1,4.63-3.72,8.47,8.47,0,0,1,4.44-.46,7.16,7.16,0,0,1,3.75,2l-2,2.57a7.22,7.22,0,0,0-2.78-1.56,4.57,4.57,0,0,0-2.73.15,4.15,4.15,0,0,0-2.48,2.1,4.08,4.08,0,0,0,1.59,5.23,7.57,7.57,0,0,0,3.3.85Z"/><path class="cls-1" d="M305.18,119.1l-2.37-12.49-12.05-13,3.75-.71,9.38,10.48,4.85-13.18,3.73-.71L306.06,106l2.37,12.48Z"/><path class="cls-1" d="M360.39,105a14.36,14.36,0,0,1-1.67,5.47,14,14,0,0,1-3.67,4.33,14.8,14.8,0,0,1-5.14,2.65,15.06,15.06,0,0,1-11.3-1.15,14.87,14.87,0,0,1-4.48-3.64,14.35,14.35,0,0,1,2.1-20.53,14.77,14.77,0,0,1,5.11-2.62,15.21,15.21,0,0,1,11.32,1.16,14.45,14.45,0,0,1,4.49,3.6,14,14,0,0,1,2.72,5A14.63,14.63,0,0,1,360.39,105Zm-15.94,9.88a11.09,11.09,0,0,0,4.41-.41,11.61,11.61,0,0,0,3.95-2.13,11.17,11.17,0,0,0,4.14-7.7,11.55,11.55,0,0,0-.41-4.5,11.19,11.19,0,0,0-2.08-3.95,11.49,11.49,0,0,0-12.12-3.74,11,11,0,0,0-3.9,2.1,11.47,11.47,0,0,0-4.15,7.78,11.26,11.26,0,0,0,.39,4.42,11.69,11.69,0,0,0,2.11,4,11.33,11.33,0,0,0,3.44,2.88A10.88,10.88,0,0,0,344.45,114.84Z"/><path class="cls-1" d="M362.87,120.35l8.22-26.53,14,4.33-.89,2.88-10.84-3.35L371,105.29l10.83,3.35-.91,2.94-10.83-3.36L366,121.32Z"/><path class="cls-1" d="M408.84,109.49l2.9,1.64L401.08,130c-1.15,2-2.44,3.27-3.89,3.74a6.17,6.17,0,0,1-5-.88,7,7,0,0,1-2.35-2.1,8.38,8.38,0,0,1-1.23-3.09l3-.82a7.76,7.76,0,0,0,.91,2.25,3.93,3.93,0,0,0,1.36,1.3,2.21,2.21,0,0,0,2.39.06,10.17,10.17,0,0,0,2.7-3.52Z"/><path class="cls-1" d="M427.45,120.66l-7.72,30.55L416.9,149l2.37-8.94-8.57-6.65-8.07,4.52-2.83-2.2ZM423,126.43l-9.76,5.36,7,5.42Z"/><path class="cls-1" d="M432.07,146.68l-9.13,8.49-2.19-2.36,20.33-18.92,4,4.27a21.82,21.82,0,0,1,2.82,3.51,6.92,6.92,0,0,1,.93,2.56,6.28,6.28,0,0,1-.49,3.29,8.72,8.72,0,0,1-2.17,3,8.85,8.85,0,0,1-3.19,1.95,6.44,6.44,0,0,1-3.32.25,7,7,0,0,1-2.49-1.09,23.16,23.16,0,0,1-3.3-3.08l-.63-.68Zm2.19-2,1.14,1.22q2.89,3.12,4.63,3.51a3.89,3.89,0,0,0,3.55-1.29,4.29,4.29,0,0,0,1.7-3.65c-.15-1.23-1.18-2.86-3.07-4.9l-1.14-1.22Z"/><path class="cls-1" d="M460.79,156l-16.62,26.77-2-2.95,5-7.8L441,163l-9.06,1.86-2-2.95Zm-6,4.14-10.92,2.15,5,7.29Z"/><path class="cls-1" d="M444.87,184.18l26.58-11.28L459,200.27,478.37,192l1.23,2.9L453,206.2l12.27-27.28-19.21,8.16Z"/><path class="cls-1" d="M234.47,368.84l5.48-21-14.37,12.73-2.54-2,22.22-19.28-6.5,24.08,21.8-12.12-13.34,26.22-2.54-2,8.85-17Z"/><path class="cls-1" d="M286.18,380.62a14.33,14.33,0,0,1-3.3,4.67,13.91,13.91,0,0,1-4.84,3A15.13,15.13,0,0,1,262,384.53a15.21,15.21,0,0,1-3.12-4.86,14.35,14.35,0,0,1,8.43-18.84,14.78,14.78,0,0,1,5.68-.89,15.34,15.34,0,0,1,10.39,4.65,14.82,14.82,0,0,1,3.13,4.83,14.09,14.09,0,0,1,1,5.6A14.48,14.48,0,0,1,286.18,380.62ZM268,385a11.2,11.2,0,0,0,4.31,1,11.76,11.76,0,0,0,4.42-.78,11.25,11.25,0,0,0,6.35-6,11.73,11.73,0,0,0,1-4.41A11.45,11.45,0,0,0,273,363.05a11,11,0,0,0-4.36.77,11.33,11.33,0,0,0-3.79,2.4,11.5,11.5,0,0,0-2.59,3.68,11.27,11.27,0,0,0-1,4.33,11.78,11.78,0,0,0,3.12,8.23A11,11,0,0,0,268,385Z"/><path class="cls-1" d="M289.66,395.71,295,367.33l15.88,25.56,3.89-20.74,3.09.58-5.31,28.36L296.6,375.78l-3.85,20.51Z"/><path class="cls-1" d="M337.79,386l11.45-.43,0,.93q.25,6.56-3.32,10.49t-10,4.17a16.33,16.33,0,0,1-3.74-.27,13.91,13.91,0,0,1-3.32-1.09,13.33,13.33,0,0,1-5.47-5,15.16,15.16,0,0,1-2.14-7.45,17,17,0,0,1,.88-6.3,13.59,13.59,0,0,1,3.16-5.05,12.32,12.32,0,0,1,4.26-2.85A15.7,15.7,0,0,1,335,372a15.4,15.4,0,0,1,7,1.19,12.35,12.35,0,0,1,5,4.18l-2.68,2.33a10.17,10.17,0,0,0-3.88-3.64,10.38,10.38,0,0,0-5.24-1.07,10.2,10.2,0,0,0-7.73,3.56,12.06,12.06,0,0,0-2.69,8.64,11.25,11.25,0,0,0,3.37,8,10.37,10.37,0,0,0,7.92,2.89,10,10,0,0,0,6.85-2.79,9.53,9.53,0,0,0,2.83-6.71l-7.92.3Z"/><path class="cls-1" d="M382.25,377.3a14.38,14.38,0,0,1,.47,5.7,13.93,13.93,0,0,1-1.8,5.39,15.14,15.14,0,0,1-9,7,15.11,15.11,0,0,1-11.26-1.23,14.14,14.14,0,0,1-7-8.72A14.21,14.21,0,0,1,355,374.28a14.79,14.79,0,0,1,3.79-4.33,15.22,15.22,0,0,1,10.94-3.11,14.76,14.76,0,0,1,5.5,1.69,13.93,13.93,0,0,1,4.37,3.64A14.65,14.65,0,0,1,382.25,377.3ZM371.1,392.38a11.09,11.09,0,0,0,3.94-2,11.58,11.58,0,0,0,2.88-3.43,11.24,11.24,0,0,0,1-8.69,11.46,11.46,0,0,0-2-4,11.32,11.32,0,0,0-12.06-3.91,11.44,11.44,0,0,0-4,2,11.11,11.11,0,0,0-2.85,3.39,11.41,11.41,0,0,0-1,8.76,11.35,11.35,0,0,0,2,4,11.88,11.88,0,0,0,7.68,4.31A11.21,11.21,0,0,0,371.1,392.38Z"/><path class="cls-1" d="M393.74,386.64l-12.49-24.8,2.95-1.48,11.07,22,9.37-4.72,1.42,2.81Z"/><path class="cls-1" d="M410.82,377.34l-14.94-23.41,2.78-1.77,14.95,23.4Z"/><path class="cls-1" d="M409.31,342.89,437.48,357l-2.76,2.3-8.22-4.25L418.16,362l2.67,8.86-2.76,2.29Zm4.67,5.62,3.13,10.69,6.8-5.65Z"/></svg>