<?xml version="1.0" encoding="utf-8"?>
<!-- Generator: Adobe Illustrator 25.2.1, SVG Export Plug-In . SVG Version: 6.00 Build 0)  -->
<svg version="1.1" id="Layer_1" xmlns="http://www.w3.org/2000/svg" xmlns:xlink="http://www.w3.org/1999/xlink" x="0px" y="0px"
	 viewBox="0 0 429.4 487.4" style="enable-background:new 0 0 429.4 487.4;" xml:space="preserve">
<style type="text/css">
	.st0{fill:#305981;}
</style>
<g id="Group_2" transform="translate(-3305 -1444)">
	<g id="Group_1" transform="translate(3305 1444)">
		<path id="Path_1" d="M107.8,297c0-0.3,0.3-0.4,0.6-0.3c0.2,0.1,0.4,0.2,0.5,0.4l18.7,49.3c1.5,4.4,3.8,6.6,6.9,6.6
			c0.7,0,1.1,0,1.1,0.7c0,0.7-0.4,0.7-1.4,0.7h-17.4c-1.1,0-1.6,0-1.6-0.7s0.5-0.7,1.6-0.7l2.5-0.3c0.8-0.1,1.4-0.5,1.9-1.1
			c0.2-1.2,0.1-2.5-0.4-3.7c-0.5-1.9-1.1-3.7-1.7-5.6l-2.5-6.1c-0.1-0.5-0.3-1-0.6-1.4c-1.3-0.4-2.7-0.6-4.1-0.6H95.9
			c-0.3-0.1-0.6-0.1-0.9,0c0,0-0.2,0.4-0.5,1.1l-2.4,5.7l-1.9,4.8c-0.5,1.1-0.8,2.2-0.9,3.3c0.1,0.5,0.2,0.9,0.5,1.3
			c0.3,0.7,1.3,1.3,3.1,1.9l2.7,0.4c0.7,0,1,0,1,0.7s-0.3,0.7-0.9,0.7H80.5c-0.7,0-1,0-1-0.6c0-0.1,0-0.3,0-0.4
			c0.1-0.2,0.3-0.3,0.5-0.5c3.7-1,6.6-4,7.5-7.8L107.8,297z M96.5,330.1c-0.2,0.4-0.3,0.8-0.3,1.2c0,0.3,0,0.5,0.6,0.6
			c0.8,0.2,1.6,0.3,2.3,0.3h13.2c1.1,0,1.7,0,2-0.8c0.2-0.5,0.2-1,0-1.5l-7.8-19.7c-0.3-0.8-0.6-1.2-0.7-1.2s-0.4,0.3-0.7,0.9
			L96.5,330.1z"/>
		<path id="Path_2" d="M149.3,354.1h-11.7c-0.7,0-1-0.2-1-0.6s0.4-0.8,1.2-0.9l2.7-0.6c0.9-0.1,1.7-0.6,2.3-1.2
			c0.9-3.9,1.2-7.8,0.8-11.8v-35.5c0.1-1.2-0.1-2.3-0.7-3.4c-1-1-2.4-1.6-3.8-1.7c-1.6,0-2.4-0.5-2.4-0.9s0.4-0.7,1.3-0.7h18
			c0.7,0,1,0,1,0.7c0,0.7-0.3,0.6-1,0.6c-0.9,0-1.7,0.2-2.5,0.5c-0.8,0.2-1.5,0.7-2.1,1.3c-0.6,0.9-1,1.9-1.1,3
			c-0.3,2.9-0.4,5.8-0.3,8.7v25.3c-0.1,3.6,0,7.3,0.2,10.9c0.1,1,0.4,1.9,1,2.7c0.5,0.7,2.4,1.1,5.9,1.1c4.1,0,8.2-0.4,12.2-1.1
			c2.9-0.3,5.7-1.2,8.3-2.6c1-0.7,1.8-1.4,2.6-2.3c0.7-1.2,1.3-2.4,1.9-3.7c0-0.2,0.2-0.4,0.4-0.4c0.1,0,0.1,0,0.2,0
			c0.2,0.1,0.2,0.4,0,0.5c0,0,0,0,0,0c-0.5,2.7-1,4.8-1.4,6.6c-0.3,1.4-0.7,2.7-1.2,4.1c-0.4,1-0.7,1.5-1,1.5h-1.3
			c-0.7,0-1.4,0-2.1,0L149.3,354.1z"/>
		<path id="Path_3" d="M227.1,305.9c0.9,1.5,1.5,3.1,2,4.8c0.5,1.7,0.8,3.5,0.8,5.4c-0.1,2.3-0.5,4.5-1.2,6.6
			c-1.2,3.1-3.5,5.6-6.6,7c-2.9,1.8-6.2,3-9.6,3.5c-2.2,0.3-4.4,0.5-6.6,0.6c-1.4,0.1-2.7,0.1-4.1,0h-1.9c-0.5,0-0.7,0.4-0.7,1.3
			v9.6c-0.1,1.7,0,3.5,0.2,5.2c0.1,0.8,0.5,1.6,1.1,2.2c1,0.6,2.1,1,3.3,1.2c1,0.2,2.1,0.4,3.1,0.5c0.6,0,0.9,0,0.9,0.6
			s0,0.8-0.8,0.8h-19.8c-0.7,0-1.1,0-1.1-0.6s0.4-0.8,1.2-0.9c0.9-0.1,1.8-0.3,2.7-0.6c0.9-0.2,1.7-0.7,2.3-1.3
			c0.9-3.9,1.2-7.9,0.8-11.9v-27.1c0.1-3.2-0.1-6.4-0.4-9.6c-0.1-1.3-0.7-2.4-1.7-3.3c-0.6-0.4-1.1-0.7-1.8-0.9
			c-0.7-0.1-1.4-0.1-2.1,0c-0.5,0-0.8-0.2-0.8-0.7s0.3-0.8,0.9-0.8c1.8,0,3.6,0.1,5.5,0.3c1.8,0.2,3.6,0.3,5.4,0.3
			c1.4,0,2.8-0.1,4.1-0.3c1.8-0.2,3.7-0.3,5.5-0.3h1.5c3.3,0,6.5,0.7,9.6,2.1c3.5,1.4,6.4,3.9,8.4,7.1 M200.2,302.9
			c-0.3,1.2-0.5,2.4-0.5,3.7v23.6c0,0.5,0.4,1,1.2,1.4c1.6,0.5,3.2,0.6,4.8,0.6c2.1,0,4.2-0.3,6.2-0.8c2.1-0.5,4.1-1.4,5.8-2.7
			c1.8-1.3,3.3-3.1,4.2-5.2c1-2,1.5-4.1,1.5-6.3c0.1-3.1-0.4-6.2-1.6-9c-0.9-2.1-2.3-4-4.2-5.4c-1.5-1.2-3.2-2.1-5-2.8
			c-1.7-0.7-3.6-1-5.5-1c-1.2,0-2.3,0.2-3.4,0.5c-0.8,0.3-1.6,0.7-2.3,1.2C200.9,301.4,200.4,302.1,200.2,302.9"/>
		<path id="Path_4" d="M270,352.2c2.5-0.3,4.8-1.4,6.7-3c1.2-1.5,2.1-3.3,2.6-5.2c0.6-2.2,1.1-3.2,1.6-3.2c0.5,0,0.5,0,0.5,0.6
			l-2.1,10.3c-0.2,0.8-0.3,1.7-0.4,2.5c-0.6,0.3-1.3,0.4-2,0.3h-42.8c-0.6,0-1,0-1-0.8c0-0.8,0.3-0.6,0.9-0.6c1.1,0,2.1-0.1,3.2-0.4
			c0.8-0.2,1.4-0.6,1.9-1.2c0.5-1.4,0.7-3,0.7-4.5c0-2.5,0.2-5,0.2-7.6v-31c0.1-2.1-0.1-4.1-0.5-6.2c-0.2-1.2-0.9-2.2-1.9-2.8
			c-0.7-0.4-1.4-0.7-2.2-0.9c-0.6-0.1-1.2-0.1-1.7,0c-0.4,0-0.7,0-0.7-0.7c-0.1-0.4,0.2-0.7,0.6-0.8c0.1,0,0.1,0,0.2,0h42.3
			c0.4-0.1,0.7-0.1,1.1,0c0,0.3-0.1,0.6-0.2,0.8l-0.5,4.5c0,1.4-0.2,2.7-0.3,3.9s-0.4,1.9-1,1.9s-0.4-0.6-0.6-1.8
			c-0.2-1.2-0.3-2.2-0.4-3.3c0-0.7-0.3-1.4-0.8-1.9c-0.9-0.5-1.8-0.8-2.7-1c-1.4-0.4-3.1-0.7-4.8-1.1c-1.9-0.3-3.9-0.5-5.8-0.5
			c-1.7,0-3.4,0.1-5.1,0.3c-1.7,0.1-3.4,0.3-5.1,0.8c-1.6,0.3-2.6,0.7-2.8,1.1c-0.3,0.9-0.4,1.8-0.4,2.7v20.4
			c0.4,0.2,0.8,0.3,1.2,0.3H266c2.2,0,3.5-0.3,4-0.9c0.8-1.7,1.5-3.5,2.3-5.5c0.2-0.2,0.4-0.2,0.6,0c0.4,0,0.5,0,0.4,0.5
			c-0.3,1.5-0.5,2.9-0.6,4.4c-0.2,1.9-0.3,3.7-0.3,5.2v3.1c0,1,0.2,2,0.6,2.9c0,0.7,0,1-0.6,1s-0.5-0.4-1.1-1.3s-1.2-2.2-2-3.8
			c-2.4-2.3-5.7-3.4-8.9-3.1h-12.7c-0.4-0.1-0.8,0-1.2,0.3c-0.2,0.4-0.3,0.8-0.2,1.2v21.7c0.2,0.9,0.8,1.7,1.6,2.2
			c1.4,0.8,2.9,1.2,4.4,1.3c2.3,0.3,4.6,0.5,6.9,0.5c1.9,0,3.9-0.1,5.8-0.3c1.5,0,3-0.2,4.5-0.6"/>
		<path id="Path_5" d="M339.9,315c0.3-4.6-0.2-9.3-1.6-13.7c-1.1-2.1-3.6-3.1-7.6-3.1c-0.7,0-1,0-1-0.6c0-0.6,0.3-0.7,0.9-0.7H349
			c0.7,0,1,0,1,0.7c0,0.7-0.3,0.7-1,0.8c-0.7,0.1-1.4,0.2-2,0.4c-0.7,0.2-1.4,0.7-1.9,1.2c-0.5,0.5-0.8,1.2-1,1.9
			c-0.4,1.1-0.6,2.2-0.5,3.3v49.5h-1c-0.8-0.9-1.4-1.4-1.9-1.9l-45.9-45.1c-1-0.8-1.5-1.2-1.7-1.2c-0.1,0.2-0.1,0.4,0,0.5v28.7
			c-0.3,4.5,0.3,9.1,1.7,13.4c1.2,2.2,3.7,3.3,7.8,3.3c0.7,0,0.9,0,0.9,0.7c0,0.7,0,0.7-0.8,0.7h-18.3c-0.7,0-1-0.2-1-0.7
			c0-0.5,0-0.7,0.7-0.8c1.3,0,2.6-0.4,3.7-1.1c0.7-0.7,1.1-1.5,1.4-2.4c0.3-1.1,0.5-2.3,0.5-3.4l0.2-35c0.2-3.1-0.1-6.3-1.1-9.2
			c-0.7-1.5-1.4-2.3-2.2-2.6c-0.6-0.3-1.3-0.4-2-0.4l-1.8-0.2c-0.4,0-0.8-0.3-0.8-0.7c0,0,0-0.1,0-0.1c0-0.4,0.5-0.7,1.3-0.7h8.7
			c1.1,0.2,2.2,0.8,2.9,1.6l3.3,3.1l42.1,39.6L339.9,315z"/>
		<path id="Path_6" d="M119,370.7c-0.3,1-0.6,2-0.8,3c-0.3,1.7-0.4,3.5-0.3,5.3l-0.3,0.3c-0.3,0.3-0.3,0-0.4-0.4
			c-0.1-1.1-0.3-2.2-0.5-3.3c-0.1-1.2-1.2-1.6-2.9-2.3c-1.7-0.7-3.5-1.3-5.3-1.8c-1.7-0.4-3.5-0.6-5.3-0.7c-2.7,0-5.3,0.7-7.6,2
			c-2.6,1.5-4.8,3.8-6.1,6.5c-1.4,2.4-2.3,5.1-2.8,7.8c-0.2,1.7-0.3,3.5-0.3,5.3c0,3.1,0.6,6.2,1.7,9.1c1.2,2.8,3,5.3,5.4,7.2
			c2,1.7,4.3,3.1,6.7,4.1c1.9,0.7,3.9,1.1,6,1.1c0.8,0.1,1.6,0.1,2.3,0c1.2-0.2,2.4-0.5,3.6-0.9c1.5-0.5,2.9-1.3,3.9-2.5
			c1.1-1.3,2.1-2.6,3-4c1-1.5,1.5-2.2,1.6-2.3s0,0,0.2,0l0,0v0.5l-1.2,4c-0.3,1.3-0.5,2.3-0.6,3c-0.1,0.3-0.1,0.7,0,1.1
			c-1,0.4-2,0.6-3.1,0.8c-1.9,0.5-3.7,0.9-5.6,1.2c-1.9,0.3-3.8,0.5-5.8,0.5c-2.7,0-5.4-0.4-7.9-1.2c-2.8-0.9-5.5-2.3-7.7-4.2
			c-2.7-2.1-4.8-4.9-6.1-8.1c-1.2-3-1.9-6.3-2-9.6c0.1-3.3,0.8-6.5,2-9.6c1.2-3.2,3.4-6,6.1-8c2.3-1.8,4.9-3.1,7.7-4
			c2.6-0.7,5.3-1.1,7.9-1.1c2,0,3.9,0.1,5.9,0.3l3.9,0.5h1.6c0.4,0,0.9,0,1.3,0h1c0.6,0,0.9,0,0.8,0.3"/>
		<path id="Path_7" d="M143.3,369.9c0-0.3,0.2-0.3,0.5,0c0.2,0.1,0.3,0.2,0.4,0.4l14.6,38.7c1.2,3.4,3,5.2,5.5,5.2
			c0.6,0,0.8,0,0.8,0.5c0,0.5-0.3,0.6-1.1,0.6h-13.6c-0.8,0-1.2-0.2-1.2-0.6s0.4-0.5,1.2-0.5c0.7,0,1.3-0.1,2-0.2
			c0.6,0,1.2-0.4,1.5-0.9c0.2-1,0.1-2-0.3-2.9c-0.4-1.5-0.9-3-1.4-4.4l-1.9-4.8c-0.1-0.4-0.3-0.8-0.5-1.2c-1-0.3-2.1-0.5-3.1-0.5
			h-13.4c-0.2,0.3-0.3,0.6-0.4,0.9l-1.9,4.4c-0.6,1.3-1.1,2.6-1.5,3.8c-0.4,0.8-0.6,1.7-0.7,2.6c0,0.4,0.1,0.8,0.3,1.1
			c0.3,0.6,1.1,1.1,2.4,1.5l2.2,0.3c0.5,0,0.7,0,0.7,0.5c0,0.3-0.2,0.6-0.5,0.6c0,0-0.1,0-0.1,0h-12c-0.5,0-0.7,0-0.7-0.5
			c0-0.1,0-0.2,0-0.3l0.4-0.4c1.3-0.5,2.4-1.1,3.5-2c1-1.2,1.9-2.6,2.4-4.1L143.3,369.9z M134.4,395.9c-0.2,0.3-0.2,0.6-0.2,0.9
			c0,0.2,0,0.4,0.5,0.5c0.6,0,1.2,0,1.9,0h10.4c0.6,0.1,1.1-0.2,1.4-0.7c0.2-0.4,0.2-0.8,0-1.2l-6.1-15.5c-0.1-0.4-0.2-0.7-0.5-1
			c0,0-0.3,0-0.6,0.7L134.4,395.9z"/>
		<path id="Path_8" d="M199.4,376.7c0.7,1.2,1.2,2.4,1.6,3.7c0.4,1.3,0.6,2.7,0.6,4.1c-0.1,1.8-0.4,3.6-1,5.3
			c-0.9,2.5-2.7,4.5-5.1,5.5c-2.3,1.4-4.8,2.3-7.4,2.7c-1.7,0.3-3.5,0.5-5.3,0.5h-4.6c-0.4,0-0.6,0.3-0.6,1.1v7.5
			c-0.1,1.4-0.1,2.7,0,4.1c0.1,0.7,0.4,1.3,0.9,1.8c0.8,0.5,1.6,0.8,2.5,0.9c0.8,0.2,1.6,0.3,2.4,0.4c0.5,0,0.8,0,0.8,0.5
			c0,0.5-0.3,0.6-0.7,0.6h-15.7c-0.6,0-0.9,0-0.9-0.5c0-0.5,0.4-0.6,0.9-0.7l2.2-0.5c0.7-0.1,1.3-0.5,1.8-1.1c0.7-3,0.9-6.2,0.7-9.3
			V382c0.1-2.5-0.1-5.1-0.4-7.6c-0.1-1-0.5-1.9-1.2-2.6c-0.4-0.3-0.9-0.5-1.4-0.7c-0.5-0.1-1.1-0.1-1.6,0c-0.4,0-0.6,0-0.6-0.6
			s0.2-0.6,0.7-0.6h11.7c1.4-0.1,2.9-0.1,4.3,0h1.2c2.6,0,5.1,0.6,7.5,1.6c2.8,1.1,5.1,3.1,6.6,5.6 M178.1,374.2
			c-0.3,0.9-0.4,1.9-0.4,2.9c0,1.3,0,2.4,0,3.2v15.3c0,0.4,0.3,0.8,1,1.1c1.2,0.4,2.5,0.5,3.8,0.4c1.6,0,3.2-0.2,4.8-0.6
			c1.7-0.4,3.4-1.1,4.8-2.2c1.5-1,2.6-2.4,3.3-4.1c0.8-1.5,1.2-3.1,1.2-4.8c0.1-2.4-0.4-4.8-1.3-7.1c-0.6-1.7-1.8-3.2-3.2-4.3
			c-1.2-0.9-2.6-1.7-4-2.3c-1.4-0.5-2.8-0.7-4.3-0.7c-0.9,0-1.8,0.1-2.6,0.4c-0.7,0.2-1.3,0.5-1.8,1c-0.4,0.5-0.8,1.1-1,1.7"/>
		<path id="Path_9" d="M211.1,382v-7.5c-0.1-0.7-0.4-1.4-0.8-2.1c-0.6-0.7-1.3-1.1-2.2-1.2c-1.1-0.3-2.2-0.4-3.3-0.4
			c-0.5,0-0.7,0-0.7-0.5s0.2-0.6,0.7-0.6h17.5c0.6,0,1,0,1,0.6s-0.3,0.6-1.1,0.6l-2.9,0.4c-0.9,0-1.8,0.5-2.2,1.2
			c-0.5,1.3-0.8,2.7-0.7,4.2V403c-0.3,2.8,0.2,5.6,1.4,8.2c0.9,1.2,2.1,2,3.5,2.3c1.4,0.3,2.1,0.6,2.1,1s0,0.5-0.7,0.5h-17.7
			c-0.5,0-0.7,0-0.7-0.5s0.2-0.6,0.7-0.6c1,0,2-0.1,2.9-0.3c0.9-0.1,1.8-0.5,2.5-1.1c0.5-0.7,0.8-1.5,0.9-2.4c0.2-2.8,0.2-5.6,0-8.4
			L211.1,382z"/>
		<path id="Path_10" d="M248.8,380.7V403c-0.3,2.9,0.1,5.8,1.2,8.5c1,1,2.2,1.6,3.5,1.9c1.6,0.4,2.3,0.7,2.3,1.1
			c0,0.4-0.2,0.5-0.7,0.5h-17.8c-0.5,0-0.7,0-0.7-0.6s0.2-0.5,0.7-0.5c1.1,0,2.2-0.1,3.3-0.3c0.8-0.2,1.5-0.5,2.1-1
			c0.5-0.7,0.7-1.5,0.8-2.4c0.2-2.5,0.3-5.1,0.3-7.6v-20.3c0.1-2.7,0-5.4-0.3-8c-0.1-0.8-0.6-1.5-1.2-2c-0.9-0.4-1.9-0.6-2.8-0.7
			h-4.8c-1.9,0-3.9,0.2-5.8,0.6c-1.6,0.2-3,1-4.1,2.2c-0.3,0.5-0.7,1.2-1.2,2.2h-0.4c-0.2,0,0,0,0-0.4c0.3-0.7,0.6-1.3,0.9-2.1
			c0.4-0.9,0.7-1.9,1.1-2.9c0.3-1.1,0.8-1.5,1.3-1.5h1.9c0.6,0,1.2,0,1.9,0h38.3c0,0.3,0,0.7,0,1c-0.4,0.9-0.7,1.9-1,2.9l-0.7,2.8
			h-0.4c-0.2,0-0.3,0-0.3-0.3c0.1-0.6,0.2-1.1,0.3-1.7c0-0.6,0-0.9,0-1c-1.3-0.9-2.8-1.5-4.4-1.6c-2.4-0.4-4.8-0.6-7.2-0.6
			c-0.9-0.1-1.9-0.1-2.8,0c-0.7,0.1-1.3,0.4-1.8,0.8c-0.6,0.9-0.9,1.9-0.9,2.9v5.5"/>
		<path id="Path_11" d="M289.2,369.9c0-0.3,0.2-0.3,0.5,0c0.2,0.3,0.4,0,0.4,0.4l14.7,38.7c1.2,3.4,3.1,5.2,5.5,5.2
			c0.5,0,0.8,0,0.8,0.5c0,0.5-0.4,0.6-1.2,0.6h-13.6c-0.8,0-1.3-0.2-1.3-0.6s0.5-0.5,1.3-0.5c0.7,0,1.3-0.1,2-0.2
			c0.6,0,1.1-0.4,1.4-0.9c0.2-0.4,0-1.3-0.3-2.9c-0.3-1.5-0.8-3-1.3-4.4l-2-4.8c-0.1-0.4-0.2-0.8-0.5-1.2c-1-0.3-2.1-0.5-3.2-0.5
			h-13.3c-0.2,0.3-0.3,0.6-0.5,0.9l-1.9,4.4l-1.5,3.8c-0.3,0.8-0.5,1.7-0.7,2.6c0.1,0.4,0.2,0.8,0.4,1.1c0.3,0.6,1.1,1.1,2.4,1.5
			l2.2,0.3c0.5,0,0.7,0,0.7,0.5c0,0.3-0.2,0.6-0.5,0.6c0,0-0.1,0-0.1,0h-12c-0.5,0-0.8,0-0.8-0.5c0-0.1,0-0.2,0-0.3l0.4-0.4
			c1.3-0.4,2.5-1.1,3.5-2c1.1-1.2,1.9-2.6,2.4-4.1L289.2,369.9z M280.4,395.9c-0.2,0.3-0.3,0.6-0.3,0.9c0,0.2,0.2,0.4,0.5,0.5
			c0.6,0,1.3,0,1.9,0h10.4c0.6,0.1,1.2-0.2,1.5-0.7c0.1-0.4,0.1-0.8,0-1.2l-6.1-15.5c-0.3-0.6-0.4-1-0.6-1s-0.3,0-0.5,0.7
			L280.4,395.9z"/>
		<path id="Path_12" d="M321.7,414.7h-9.2c-0.5,0-0.7,0-0.7-0.5c0-0.5,0.2-0.6,0.9-0.8l2.2-0.4c0.7-0.2,1.3-0.5,1.8-1
			c0.7-3,0.9-6.2,0.7-9.3v-27.9c0-0.9-0.1-1.8-0.5-2.6c-0.8-0.8-1.9-1.2-3-1.3c-1.3,0-1.9-0.4-1.9-0.7s0.3-0.6,1-0.6h14.3
			c0.5,0,0.7,0.2,0.7,0.6c0,0.3-0.2,0.5-0.7,0.5c-0.7,0-1.4,0.1-2,0.4c-0.6,0.2-1.1,0.6-1.5,1c-0.5,0.6-0.8,1.5-0.9,2.3
			c-0.1,2.3-0.1,4.6,0,6.8V410c0,0.8,0.3,1.5,0.8,2.2c0.3,0.6,1.8,0.9,4.5,0.9c3.2,0,6.4-0.3,9.6-0.9c2.3-0.2,4.5-0.9,6.5-2
			c0.8-0.5,1.5-1.1,2-1.8c0.6-0.9,1.1-1.9,1.5-2.9c0,0,0.3-0.3,0.5,0s0,0,0,0.4c-0.4,2.2-0.8,3.9-1.2,5.2c-0.3,1.1-0.6,2.1-1,3.2
			c-0.2,0.8-0.5,1.2-0.8,1.2h-1c-0.5-0.1-1.1-0.1-1.6,0L321.7,414.7z"/>
		<path id="Path_13" class="st0" d="M293.7,228.3l-3.3-2.5c13.3-16.6,20.7-37.2,20.8-58.5c0-53.3-43.1-96.5-96.4-96.6l0,0
			c-52.8-0.4-96,42.1-96.4,94.9c-0.2,19.8,5.9,39.2,17.2,55.5l-3.4,2.3c-31.3-45.5-19.8-107.8,25.7-139.1
			c16.7-11.5,36.6-17.7,56.9-17.6l0,0c55.5,0,100.4,45,100.4,100.4c0,0.1,0,0.3,0,0.4C315.1,189.5,307.5,211,293.7,228.3"/>
		<path id="Path_14" class="st0" d="M293.3,228.3c4.8-5.9-28.2,38.5-78.7,38.5c-32.9,0-63.7-16.3-82.1-43.6l0.8-17.2h0.7
			c0,0,4.1,24.6,6.1,26.9l1.5-36h0.7c0,0,3.5,42.1,4.8,43.3l2.4-57.4h0.7c0,0,4.1,63.6,5.6,64.6l3.5-76.5h0.7c0,0,3.9,82,4.8,82.5
			l3.9-94.4h0.7c0,0,4.4,99,5.5,99.5l4.4-114.8h0.9c0,0,5.2,118.4,6.6,118.9l4.3-134.2h0.6c0,0,4.8,136.5,6,136.7l4.3-152.3h0.6
			c0,0,5.1,153.5,6.4,153.6l4.4-167.4h0.7c0,0,2.8,167.6,4.3,167.4l4.8-153.6h0.7l4.3,152.7c1.2,0,5.9-137,5.9-137h0.7l4.4,134.7
			c2-0.5,6.6-119.5,6.6-119.5h0.7l4.4,115.3c1-0.4,5.4-100.1,5.4-100.1h0.7l4,95.2c0.9-0.4,4.8-83.3,4.8-83.3h0.6l3.6,77.8
			c1.4-0.9,5.5-65.9,5.5-65.9h0.7l2.6,59.5c1.2-1.1,4.8-45.3,4.8-45.3h0.7l2,39c1.8-1.8,5.7-29.8,5.7-29.8h0.7L293.3,228.3"/>
	</g>
</g>
</svg>
