<?xml version="1.0" encoding="utf-8"?>
<!-- Generator: Adobe Illustrator 19.2.1, SVG Export Plug-In . SVG Version: 6.00 Build 0)  -->
<svg version="1.1" id="layer" xmlns="http://www.w3.org/2000/svg" xmlns:xlink="http://www.w3.org/1999/xlink" x="0px" y="0px"
	 viewBox="0 0 652 652" style="enable-background:new 0 0 652 652;" xml:space="preserve">
<style type="text/css">
	.st0{fill:#00256C;}
	.st1{fill:#002569;}
	.st2{fill:#FFFFFF;}
</style>
<g id="XMLID_23_">
	<path id="XMLID_24_" class="st0" d="M176,334.5c1.2-2.8,2-4.5,2.6-6.3l3.5-0.3l7.4,16.7c0.9,2,2.2,4.6,3.1,6.6l-5.6,0.3l-2.2-5.2
		h-8.6c-0.5,1.2-1.5,4-2,5.1h-5.7L176,334.5z M177.4,342.7h6l-3.1-7.6L177.4,342.7z"/>
	<path id="XMLID_28_" class="st0" d="M201,351.8c-2.5,0-5.4-0.8-7.1-1.9l0.2-4.8c1.4,1.2,4.3,2.5,7.1,2.5c1.9,0,3.1-0.9,3.1-2.6
		c0-3.5-9.6-4-9.6-10.2c0-4.3,3.2-6.9,7.7-6.9c2.3,0,4.8,0.8,6.2,1.7l-1.1,4c-1.4-0.8-3.2-1.5-4.9-1.5s-2.8,0.9-2.8,2.5
		c0,3.4,9.6,3.7,9.6,10.2C209.1,349,205.9,351.8,201,351.8z"/>
	<path id="XMLID_31_" class="st0" d="M213,351.2c0.2-1.5,0.2-5.7,0.2-7.9v-7.1c0-2,0-6.3-0.2-7.9c1.2,0,4.5,0,5.6-0.2
		c-0.2,0.9-0.2,3.5-0.2,4.8v13.4c0,1.2,0,3.7,0.2,4.6H213V351.2z"/>
	<path id="XMLID_33_" class="st0" d="M228.7,334.5c1.2-2.8,2-4.5,2.6-6.3l3.5-0.3l7.4,16.7c0.9,2,2.2,4.6,3.1,6.6l-5.6,0.3l-2.2-5.2
		H229c-0.5,1.2-1.5,4-2,5.1h-5.4L228.7,334.5z M230.3,342.7h6l-3.1-7.6L230.3,342.7z"/>
	<path id="XMLID_36_" class="st0" d="M248.2,343.3v-7.6c0-2,0-6-0.2-7.6l3.2-0.3l12.2,14.7V336c0-2,0-6.3-0.3-7.9
		c1.2,0,4.3,0,5.4-0.2c-0.2,0.9-0.2,3.5-0.2,4.8l-0.2,13.6c0,1.2,0,3.9,0,4.8l-3.1,0.3l-12.2-14.7v9.4c0,1.2,0,3.7,0.2,4.6h-5.4
		C248,349.6,248.2,345.4,248.2,343.3z"/>
	<path id="XMLID_38_" class="st0" d="M288.4,351.2h-7.9c0.2-1.5,0.2-5.7,0.2-7.9v-7.1c0-2,0-6.2-0.2-7.7c1.2,0,3.7-0.2,7.1-0.2
		c8.3,0,13,4.5,13,11C300.6,346.4,295.7,351.2,288.4,351.2z M288.1,332.2c-0.8,0-1.4,0-2.2,0.2c0,0.5,0,1.2,0,1.7v11.4
		c0,0.5,0,1.1,0,1.5c0.8,0.2,1.2,0.2,2.2,0.2c5.2,0,7.2-3.4,7.2-7.6C295.4,335,292.7,332.2,288.1,332.2z"/>
	<path id="XMLID_43_" class="st0" d="M319.3,351.3c-2-0.2-4.6-0.2-7.1-0.2c-2.6,0-5.4,0-7.7,0.2c0.2-1.5,0.2-5.9,0.2-7.9v-7.1
		c0-2,0-6.5-0.2-8c2.2,0.2,4.6,0.2,7.2,0.2c2.5,0,4.9,0,6.9-0.2c-0.2,1.4-0.3,2.6-0.3,4.3c-1.7,0-3.5,0-5.7,0c-0.9,0-2,0-2.9,0
		c0,0.5,0,1.2,0,1.7v3.1h7.4c0,1.1-0.2,2.5-0.2,3.9h-7.2v4.2c0,0.5,0,1.2,0,1.7c0.9,0,2,0,2.9,0c2.5,0,4.5,0,6.5-0.2
		C319.3,348.4,319.3,349.6,319.3,351.3z"/>
	<path id="XMLID_46_" class="st0" d="M326.2,328.2l5.9,15.7l3.7-10.2c0.6-1.9,1.4-3.7,1.9-5.4h5.6l-6.9,16.7
		c-1.2,2.8-1.9,4.5-2.5,6.3l-3.4,0.3l-6.9-16.5c-0.8-2-2-4.6-2.8-6.6L326.2,328.2z"/>
	<path id="XMLID_48_" class="st0" d="M360.6,351.3c-2-0.2-4.6-0.2-7.1-0.2c-2.6,0-5.4,0-7.7,0.2c0.2-1.5,0.2-5.9,0.2-7.9v-7.1
		c0-2,0-6.5-0.2-8c2.2,0.2,4.6,0.2,7.2,0.2c2.5,0,4.9,0,6.9-0.2c-0.2,1.4-0.3,2.6-0.3,4.3c-1.7,0-3.5,0-5.7,0c-0.9,0-2,0-2.9,0
		c0,0.5,0,1.2,0,1.7v3.1h7.4c0,1.1-0.2,2.5-0.2,3.9H351v4.2c0,0.5,0,1.2,0,1.7c0.9,0,2,0,2.9,0c2.5,0,4.5,0,6.5-0.2
		C360.8,348.4,360.6,349.6,360.6,351.3z"/>
	<path id="XMLID_50_" class="st0" d="M379,351.3c-2.2-0.2-4.6-0.2-7.1-0.2c-2.6,0-5.2,0-7.4,0.2c0.2-1.5,0.2-5.9,0.2-8v-7.1
		c0-2,0-6.3-0.2-7.9c1.2,0,4.5,0,5.6-0.2c-0.2,0.9-0.2,3.5-0.2,4.8v12.2c0,0.5,0,1.2,0,1.9c0.8,0,1.7,0,2.6,0c2.5,0,4.6,0,6.6-0.2
		C379.1,348.2,379,349.6,379,351.3z"/>
	<path id="XMLID_52_" class="st0" d="M380.7,340.4c0-7.1,4.8-12.5,11.9-12.5c6.8,0,11.3,5.1,11.3,11.4c0,7.1-4.8,12.5-11.9,12.5
		C385.1,351.8,380.7,346.5,380.7,340.4z M398.5,339.9c0-4.9-2.8-7.9-6.5-7.9c-3.9,0-6.5,3.5-6.5,7.7c0,4.9,2.8,7.9,6.5,7.9
		C396.1,347.6,398.5,344.1,398.5,339.9z"/>
	<path id="XMLID_55_" class="st0" d="M413,346.5c0,1.2,0,3.7,0.2,4.6h-5.6c0.2-1.5,0.2-5.7,0.2-7.9v-7.1c0-2,0-6.3-0.2-7.9
		c1.2,0,5.2-0.2,7.2-0.2c6.3,0,9.6,3.1,9.6,7.2c0,4.6-3.1,8.3-10,8.3c-0.5,0-0.8,0-1.2,0v2.8H413z M414.9,332.3c-0.6,0-1.1,0-1.9,0
		v7.6c0.5,0,0.9,0,1.4,0c3.1,0,4.8-1.4,4.8-3.9S417.8,332.3,414.9,332.3z"/>
	<path id="XMLID_58_" class="st0" d="M427.4,343.3l0.9-7.2c0.3-2,0.8-6.2,0.9-7.9l3.2-0.2c0.6,1.4,1.4,3.2,2.2,4.6l5.1,11l4.9-11.1
		c0.6-1.4,1.5-3.4,2-4.6h3.2c0.2,1.9,0.8,6,1.1,8.2l1.1,7.2c0.3,2.2,0.9,6.2,1.4,7.9l-5.2,0.3c0-0.9-0.3-3.7-0.6-4.9l-1.1-8.3
		c-1.5,3.7-5.2,12.2-5.7,13.3l-2.3,0.2l-5.7-13.3l-1.1,8.2c-0.2,1.2-0.5,3.7-0.5,4.6h-5.1C426.5,349.5,427.1,345.4,427.4,343.3z"/>
	<path id="XMLID_60_" class="st0" d="M471.8,351.3c-2-0.2-4.6-0.2-7.1-0.2c-2.6,0-5.4,0-7.7,0.2c0.2-1.5,0.2-5.9,0.2-7.9v-7.1
		c0-2,0-6.5-0.2-8c2.2,0.2,4.6,0.2,7.2,0.2c2.5,0,4.9,0,6.9-0.2c-0.2,1.4-0.3,2.6-0.3,4.3c-1.7,0-3.5,0-5.7,0c-0.9,0-2,0-2.9,0
		c0,0.5,0,1.2,0,1.7v3.1h7.4c0,1.1-0.2,2.5-0.2,3.9h-7.2v4.2c0,0.5,0,1.2,0,1.7c0.9,0,2,0,2.9,0c2.5,0,4.5,0,6.5-0.2
		C471.8,348.4,471.8,349.6,471.8,351.3z"/>
	<path id="XMLID_62_" class="st0" d="M475.7,343.3v-7.6c0-2,0-6-0.2-7.6l3.2-0.3l12.2,14.7V336c0-2,0-6.3-0.3-7.9
		c1.2,0,4.3,0,5.4-0.2c-0.2,0.9-0.2,3.5-0.2,4.8l-0.2,13.6c0,1.2,0,3.9,0,4.8l-3.1,0.3l-12.2-14.7v9.4c0,1.2,0,3.7,0.2,4.6h-5.4
		C475.5,349.6,475.7,345.4,475.7,343.3z"/>
	<path id="XMLID_64_" class="st0" d="M519,332.6c-2.3,0-4.3,0-7.1,0c0,0.8,0,1.5,0,2v11.9c0,1.2,0,3.7,0.2,4.6h-5.6
		c0.2-1.5,0.2-5.7,0.2-7.9v-5.7c0-1.2,0-3.4,0-5.1c-2.6,0-4.9,0-7.2,0c0.2-1.2,0.2-2.9,0.2-4.5c3.1,0.2,6,0.2,9.7,0.2
		c3.7,0,6.8,0,9.9-0.2C519.2,329.6,519,330.9,519,332.6z"/>
	<path id="XMLID_66_" class="st0" d="M529.5,351.2c0.2-1.5,0.2-5.7,0.2-7.9v-7.1c0-2,0-6.2-0.2-7.7c1.1,0,4.8-0.2,7.7-0.2
		c6.2,0,8.3,3.1,8.3,5.9c0,2.5-1.5,4.2-3.7,4.9c3.1,0.8,4.6,2.9,4.6,5.4c0,3.7-2.9,6.6-8.8,6.6C537.7,351.2,529.5,351.2,529.5,351.2
		z M536.7,337.7c2.5,0,3.9-1.1,3.9-2.8c0-1.9-1.4-2.8-3.9-2.8c-0.9,0-1.5,0-2.2,0.2v5.6C535.1,337.6,536.3,337.7,536.7,337.7z
		 M537.4,347.3c2.6,0,4.2-0.9,4.2-3.1c0-1.9-1.4-3.1-4.8-3.1c-0.8,0-1.5,0-2.2,0.2v6C535.5,347.1,536.4,347.3,537.4,347.3z"/>
	<path id="XMLID_70_" class="st0" d="M555.3,334.5c1.2-2.8,2-4.5,2.6-6.3l3.5-0.3l7.4,16.7c0.9,2,2.2,4.6,3.1,6.6l-5.6,0.3l-2.2-5.2
		h-8.6c-0.5,1.2-1.5,4-2,5.1H548L555.3,334.5z M556.6,342.7h6l-3.1-7.6L556.6,342.7z"/>
	<path id="XMLID_73_" class="st0" d="M574.7,343.3v-7.6c0-2,0-6-0.2-7.6l3.2-0.3l12.2,14.7V336c0-2,0-6.3-0.3-7.9
		c1.2,0,4.3,0,5.4-0.2c-0.2,0.9-0.2,3.5-0.2,4.8l-0.2,13.6c0,1.2,0,3.9,0,4.8l-3.1,0.3l-12.2-14.7v9.4c0,1.2,0,3.7,0.2,4.6h-5.4
		C574.5,349.6,574.7,345.4,574.7,343.3z"/>
	<path id="XMLID_75_" class="st0" d="M605.7,340.7v5.7c0,1.2,0,3.7,0.2,4.6h-5.6c0.2-1.5,0.2-5.7,0.2-7.9V336c0-2,0-6.3-0.2-7.9
		c1.2,0,4.5,0,5.6-0.2c-0.2,0.9-0.2,3.5-0.2,4.8v5.4l3.4-4.2c1.4-1.5,3.2-4,4.8-5.9h6.2l-9.6,11l5.2,6.3c1.2,1.4,3.5,4,4.8,5.6
		l-6,0.5L605.7,340.7z"/>
</g>
<g id="XMLID_1_">
	<g id="XMLID_22_">
		<polygon id="XMLID_80_" class="st1" points="20.5,260.3 143.9,260.3 143.9,383.7 20.5,383.7 		"/>
	</g>
	<g id="XMLID_2_">
		<path id="XMLID_18_" class="st2" d="M102.1,321.2c-2.3-3.4-5.6-6-9.9-7.4c-1.1-0.3-2.3-0.6-3.4-0.8c-1.1-0.2-2.3-0.3-3.5-0.3
			c-0.6,0-1.4,0-2.2,0c-0.8,0-1.4,0-2.2,0c-0.6,0-1.2,0-2,0c-0.6,0-1.4,0-2,0s-1.4,0-2,0s-1.4,0-2,0c-0.6,0-1.2,0-2,0
			c-0.6,0-1.4,0-2,0s-1.4,0-2,0c-0.6,0-1.4,0-2,0v1.9c0,0,0,0,0.2,0c0,0,0,0,0.2,0c1.9,0.2,3.4,0.3,4.3,0.8c1.1,0.5,1.5,1.9,1.5,4
			v26.8c0,2.2-0.5,3.5-1.5,4c-0.8,0.3-1.9,0.6-3.1,0.8c-0.9-0.2-1.9-0.5-2.5-0.9c-0.8-0.6-1.5-1.7-2.2-2.9L46.7,312h-2.2l-14.5,35
			c-0.6,1.5-1.4,2.6-2.5,3.2c-0.9,0.5-2.3,0.8-4,0.8v1.9h13.9V351h-1.2c-0.2,0-0.3,0-0.5,0c-0.2,0-0.3,0-0.5,0
			c-0.6,0-1.4-0.2-1.9-0.6c-0.6-0.3-0.9-0.9-0.9-1.7c0-0.3,0-0.6,0.2-0.8c0.2-0.3,0.2-0.5,0.3-0.8l3.1-7.9h16l3.2,7.9
			c0.2,0.3,0.3,0.6,0.5,1.1c0.2,0.3,0.2,0.8,0.2,1.1c0,0.6-0.3,1.1-0.6,1.2c-0.5,0.3-0.9,0.5-1.5,0.5c-0.3,0-0.5,0-0.8,0
			c-0.2,0-0.5,0-0.6,0H51v1.9h14.2h2.5h18c6,0,10.8-1.9,14.5-5.4c3.7-3.7,5.6-8.5,5.6-14.3C105.6,328.6,104.4,324.8,102.1,321.2z
			 M36.8,336.7l6.5-16.2c0-0.2,0.2-0.3,0.2-0.3c0-0.2,0.2-0.3,0.2-0.3c0-0.2,0.2-0.3,0.2-0.5s0.2-0.3,0.2-0.5c0.2,0.6,0.3,1.2,0.6,2
			c0.3,0.6,0.5,1.2,0.8,2c0,0.2,0.2,0.3,0.2,0.5c0.2,0.2,0.2,0.3,0.2,0.5l5.2,12.8C50.9,336.7,36.8,336.7,36.8,336.7z M95.3,345.4
			c-2,3.5-5.7,5.4-11.1,5.4c-2.8,0-4.8-0.3-5.7-1.1c-0.9-0.8-1.4-2.6-1.4-5.6v-29.5c0.3,0,0.8,0,1.1-0.2c0.3,0,0.8,0,1.1,0
			c0.3,0,0.6,0,1.1,0c0.3,0,0.8,0,1.1,0c5.9,0,10.2,1.7,13,4.9c2.8,3.2,4,7.7,4,13.6C98.5,337.6,97.5,341.7,95.3,345.4z"/>
		<path id="XMLID_14_" class="st2" d="M125.2,331.1c3.2,0.2,6.2,1.1,8.9,2.8c2.6,1.7,4,4.5,4,8c0,3.4-1.2,6.2-3.5,8
			c-2.3,2-5.1,2.9-8.3,2.9h-20.7V351c0,0,0,0,0.2,0c0,0,0,0,0.2,0c2-0.2,3.4-0.3,4.3-0.8c0.9-0.5,1.5-1.9,1.5-4v-26.8
			c0-2.2-0.5-3.5-1.5-4c-1.1-0.5-2.5-0.8-4.3-0.8c0,0,0,0-0.2,0c0,0,0,0-0.2,0v-1.9h19.4c2.8,0,5.2,0.8,7.4,2.2
			c2.2,1.4,3.4,3.7,3.4,6.6c0,3.2-1.1,5.6-3.2,6.9C130.5,329.7,128,330.6,125.2,331.1L125.2,331.1z M117.8,332.3v13.9
			c0,2,0.6,3.2,1.7,3.7c1.1,0.6,2.5,0.8,4.2,0.8c2.9,0,4.9-0.9,6-2.9c1.1-1.9,1.7-4.2,1.7-6.8c0-4.5-1.4-6.9-4.2-7.7
			C124.3,332.6,121.2,332.3,117.8,332.3L117.8,332.3z M117.8,330.3c3.1,0,5.9-0.3,8.2-1.1c2.3-0.8,3.4-2.9,3.4-6.8
			c0-2.5-0.5-4.3-1.4-5.7c-0.9-1.4-2.8-2.2-5.4-2.2h-4.8V330.3L117.8,330.3z"/>
	</g>
</g>
</svg>
