<svg id="Layer_1" data-name="Layer 1" xmlns="http://www.w3.org/2000/svg" viewBox="0 0 546.57 329.52"><path d="M26.67,182V107c.13-.11.27-.35.41-.35,11.36.09,22.74,0,34.09.44a21.84,21.84,0,0,1,9.16,3c6.38,3.5,9.1,9.31,8.78,16.5-.32,7-4.14,11.68-10.38,14.55-.6.27-1.19.56-1.78.86,0,0,0,.17-.06.41,7.36,1.51,12.58,5.61,14.7,13,3.06,10.64-2.2,20.68-13,24.39a38.07,38.07,0,0,1-11.2,2.16C47.26,182.22,37.13,182,26.67,182ZM40.2,170.9c6.67-.33,13-.55,19.38-1a11.14,11.14,0,0,0,4.27-1.55c3.8-2.06,5.49-5.82,4.95-10.41a8.64,8.64,0,0,0-7-8c-7.14-1.84-14.35-.72-21.62-1.07Zm.06-33.58c4,0,7.76.13,11.55,0a30.83,30.83,0,0,0,7.6-1.13c4.24-1.31,6.33-4.6,6.19-8.91s-2.32-7.41-6.75-8.07c-6.08-.9-12.28-1-18.59-1.42Z"/><path d="M470.44,199.77l8-11c.83.64,1.56,1.19,2.27,1.77a24.12,24.12,0,0,0,18.2,5.38c7.59-.74,12.22-5.22,13-12.83.26-2.36.25-4.75.4-7.83-5.73,6.07-12.45,8-20,7.25a23.88,23.88,0,0,1-18.11-10.79c-7.77-11.55-5-29.28,5.52-37.41,7.71-6,24.48-8,33,3.9V131H525c0,.9.14,1.73.14,2.56,0,14.44.08,28.89,0,43.33A52.23,52.23,0,0,1,523.9,188c-2.42,10.6-9.22,16.92-19.85,18.93a43,43,0,0,1-22.1-1.38C478.07,204.21,474.53,201.87,470.44,199.77Zm42.78-43.59c0-9.16-5.93-15.14-15.06-15.09-8.84,0-15,6.15-15,15a14.75,14.75,0,0,0,15,15.09C507,171.15,513.19,165,513.22,156.18Z"/><path d="M231.61,131h12v7.33c11.16-12.06,24.81-11.89,31.78.09.17,0,.44,0,.51-.13,4.93-8.27,13.76-10,21.76-8.16,7.16,1.61,11.63,6.63,12.18,13.6,1,12.63.91,25.34,1.29,38.21H297.92v-3.17c0-8.41,0-16.83,0-25.25a26.63,26.63,0,0,0-.36-4.56c-.84-4.63-3.06-7-7-7.66-4.79-.8-9.16.8-11,4.84a24.62,24.62,0,0,0-2,9.09c-.27,7.93-.09,15.88-.09,23.82V182H264.7v-4.65c0-8.61,0-17.22,0-25.83,0-6.42-2.37-9.62-7.28-10.27-6-.8-10.91,2.36-12.4,8.13a23.94,23.94,0,0,0-.6,5.68c0,8.88,0,17.76,0,26.87H231.61Z"/><path d="M331.69,175.57v6.36h-12V106.69h12.56v30.79c3.8-4.21,7.89-6.66,12.82-7.51,14.36-2.49,27,6.36,29,20.88a39,39,0,0,1-.61,14.16,24.26,24.26,0,0,1-33.65,16.34C336.9,180,334.48,177.59,331.69,175.57Zm30.16-19.1c0-8.68-6.32-15.26-14.81-15.38a15,15,0,0,0-15.17,15.34c0,8.74,6.6,15.45,15.14,15.39S361.84,165.15,361.85,156.47Z"/><path d="M135.42,183.57c-8.83-.37-17.49-4.17-22.54-13.71-4.93-9.31-4.65-18.83.89-27.84,7.44-12.11,25.3-15.93,38.46-8.48,12,6.83,16.61,22.7,10.22,35.53C157.86,178.3,148.22,183.81,135.42,183.57Zm16.94-26.76c0-8.75-6.24-15.33-14.72-15.41-8.65-.08-15.18,6.45-15.23,15.22S128.83,172,137.46,172,152.32,165.54,152.36,156.81Z"/><path d="M199.05,129.75c23.52.16,32,24.23,23,40.39-5.35,9.64-16.5,14.7-28.69,13.14-11.23-1.44-20-9-22.71-19.47-2.81-10.94,1-22.35,9.65-28.67C185.45,131.4,191.25,129.79,199.05,129.75Zm13.57,26.91c0-8.77-6.25-15.25-14.78-15.3s-15.16,6.48-15.17,15.25,6.38,15.26,14.84,15.33C206.2,172,212.6,165.53,212.62,156.66Z"/><path d="M392,161c.65,5.71,3.34,9.53,8.24,11.21,6.46,2.22,12.44,1.44,19.26-5.82l9.16,6.9c-1.53,1.53-2.81,3-4.3,4.27C410,189.62,386,183,380.47,165.27c-3.15-10.23-1.53-19.88,6.25-27.61s17.49-9.7,27.85-6.76c9.91,2.82,14.31,10.58,15.85,20.19.5,3.16.47,6.41.69,9.9Zm.17-9.75h25.6c.36-6.71-4-11.18-11.34-11.86C398.75,138.67,393.08,143.3,392.16,151.24Z"/><path d="M102.2,182H89.71V106.67H102.2Z"/><path d="M450.48,182H437.79V131.09h12.57v7.67c.92-1.25,1.38-1.86,1.84-2.47,4-5.28,9.35-7.28,15.86-6.48,1.74.21,2.48.85,2.39,2.72-.15,3.24,0,6.49,0,10-1.76-.22-3.32-.5-4.88-.61-9.18-.63-15,4.75-15,13.92C450.46,164.43,450.48,173,450.48,182Z"/><path d="M90,208.24v15.51H84.74V200a63.66,63.66,0,0,1,6.94.09c.71.08,1.57,1.17,1.88,2,1.59,4.17,3,8.39,4.75,13.28,1.62-4.7,3.13-8.73,4.36-12.83.59-2,1.53-2.77,3.6-2.56,1.77.18,3.58,0,5.54,0v23.79h-5.53V208.62l-.49-.1c-1.59,4.35-3.21,8.68-4.76,13-.5,1.43-1,2.46-2.9,2.46s-2.4-.91-2.91-2.41c-1.52-4.49-3.18-8.94-4.78-13.4Z"/><path d="M161.75,214.55v-14.4H167v23.34c-4.94,1.29-6,.87-8.58-3.26l-7.31-11.87v15.38h-5.46V200.32c5.62-1.14,6.16-.91,9,3.73q3.28,5.35,6.58,10.69Z"/><path d="M141.78,212c-.06,7.26-5.72,12.64-13.2,12.54s-13.08-5.61-13-12.8,5.6-12.49,13.24-12.44S141.83,204.65,141.78,212Zm-6.1-.2a7,7,0,1,0-14,.12,7,7,0,1,0,14-.12Z"/><path d="M197,211.66c.09-7.3,5.66-12.49,13.28-12.38s13,5.45,12.86,12.8-5.77,12.57-13.28,12.44S196.86,219,197,211.66ZM210.05,219a7,7,0,0,0,7-7.17,7,7,0,0,0-7-7.18,7.18,7.18,0,0,0,0,14.35Z"/><path d="M188.76,214.54l-5-.23v-4.42h9.68c0,3.94.07,7.74-.07,11.54,0,.58-.89,1.4-1.54,1.66a18.66,18.66,0,0,1-11.8.85c-5.86-1.58-9.3-6.65-8.94-13a11.92,11.92,0,0,1,10.25-11.39c4.17-.61,8.18-.15,11.91,2.93l-3.15,3.67a33.57,33.57,0,0,0-5.84-1.57,6,6,0,0,0-6.29,4,7.87,7.87,0,0,0,1.17,8.6c1.66,1.94,5.41,3,7.6,1.76C187.76,218.37,188,216.4,188.76,214.54Z"/><path d="M252.33,223.93c3.31-7.92,6.33-15.31,9.56-22.61.33-.74,1.94-1.29,2.95-1.28,1.24,0,3.24.36,3.59,1.15,3.28,7.36,6.28,14.85,9.55,22.74a31.19,31.19,0,0,0-3.91,0c-2,.27-3.1-.5-3.51-2.39a2.73,2.73,0,0,0-3.47-2.41,14,14,0,0,1-3.42,0c-2.29-.26-3.9.29-4.27,2.86-.28,1.91-1.68,2-3.22,1.93C255.07,223.88,253.94,223.93,252.33,223.93Zm9.87-9.58H268c-.95-2.58-1.81-4.95-2.88-7.85C264,209.44,263.16,211.72,262.2,214.35Z"/><path d="M60.37,217c1.59-4.88,3.16-8.94,4.18-13.13.77-3.19,2.26-4.57,5.5-3.92a21.86,21.86,0,0,0,2.22.18c-2.94,7.66-5.7,15.17-8.82,22.53-.36.86-2.7,1.14-4.14,1.18a3.21,3.21,0,0,1-2.48-1.53c-2.9-7.26-5.62-14.58-8.57-22.35a37.08,37.08,0,0,0,4.12,0c1.85-.22,2.71.5,3.24,2.28C57,206.91,58.61,211.56,60.37,217Z"/><path d="M45.9,204.88H39.33v18.84H33.52v-18.8H27v-4.75H45.9Z"/><path d="M232.54,218.8h9.14v4.91H227V200.16h5.51Z"/><path d="M244.76,200.05h5.42V223.7h-5.42Z"/></svg>